<?xml version="1.0" encoding="UTF-8" standalone="no"?>
<!DOCTYPE svg PUBLIC "-//W3C//DTD SVG 1.1//EN"
 "http://www.w3.org/Graphics/SVG/1.1/DTD/svg11.dtd">
<!-- Generated by graphviz version 2.47.0 (20210316.0004)
 -->
<!-- Title: dependencies Pages: 1 -->
<svg width="504pt" height="284pt"
 viewBox="0.00 0.00 504.00 284.00" xmlns="http://www.w3.org/2000/svg" xmlns:xlink="http://www.w3.org/1999/xlink">
<g id="graph0" class="graph" transform="scale(1 1) rotate(0) translate(4 280)">
<title>dependencies</title>
<polygon fill="white" stroke="transparent" points="-4,4 -4,-280 500,-280 500,4 -4,4"/>
<text text-anchor="start" x="227.01" y="-42.4" font-family="Times-12" font-weight="bold" font-size="14.00">Legend</text>
<polygon fill="#ffffb3" stroke="transparent" points="14,-10 14,-30 34,-30 34,-10 14,-10"/>
<text text-anchor="start" x="37.63" y="-15.4" font-family="Times-12" font-size="14.00"> &#160;Declarations</text>
<polygon fill="#8dd3c7" stroke="transparent" points="127,-10 127,-30 147,-30 147,-10 127,-10"/>
<text text-anchor="start" x="150.73" y="-15.4" font-family="Times-12" font-size="14.00"> &#160;Module</text>
<polygon fill="#80b1d3" stroke="transparent" points="213,-10 213,-30 233,-30 233,-10 213,-10"/>
<text text-anchor="start" x="236.78" y="-15.4" font-family="Times-12" font-size="14.00"> &#160;Bootstrap</text>
<polygon fill="#fdb462" stroke="transparent" points="310,-10 310,-30 330,-30 330,-10 310,-10"/>
<text text-anchor="start" x="333.67" y="-15.4" font-family="Times-12" font-size="14.00"> &#160;Providers</text>
<polygon fill="#fb8072" stroke="transparent" points="406,-10 406,-30 426,-30 426,-10 406,-10"/>
<text text-anchor="start" x="429.73" y="-15.4" font-family="Times-12" font-size="14.00"> &#160;Exports</text>
<g id="clust1" class="cluster">
<title>cluster_SymbolModule</title>
<polygon fill="none" stroke="black" stroke-dasharray="1,5" points="107,-70 107,-268 389,-268 389,-70 107,-70"/>
</g>
<g id="clust4" class="cluster">
<title>cluster_SymbolModule_exports</title>
<polygon fill="none" stroke="black" points="195,-208 195,-260 317,-260 317,-208 195,-208"/>
</g>
<g id="clust3" class="cluster">
<title>cluster_SymbolModule_imports</title>
<polygon fill="none" stroke="black" points="279,-78 279,-130 381,-130 381,-78 279,-78"/>
</g>
<g id="clust6" class="cluster">
<title>cluster_SymbolModule_providers</title>
<polygon fill="none" stroke="black" points="115,-78 115,-130 271,-130 271,-78 115,-78"/>
</g>
<!-- RoleModule -->
<g id="node1" class="node">
<title>RoleModule</title>
<polygon fill="#8dd3c7" stroke="black" points="372.99,-122 369.99,-126 348.99,-126 345.99,-122 287.01,-122 287.01,-86 372.99,-86 372.99,-122"/>
<text text-anchor="middle" x="330" y="-99.8" font-family="Times,serif" font-size="14.00">RoleModule</text>
</g>
<!-- SymbolModule -->
<g id="node2" class="node">
<title>SymbolModule</title>
<polygon fill="#8dd3c7" stroke="black" points="307.61,-187 304.61,-191 283.61,-191 280.61,-187 204.39,-187 204.39,-151 307.61,-151 307.61,-187"/>
<text text-anchor="middle" x="256" y="-164.8" font-family="Times,serif" font-size="14.00">SymbolModule</text>
</g>
<!-- RoleModule&#45;&gt;SymbolModule -->
<g id="edge1" class="edge">
<title>RoleModule&#45;&gt;SymbolModule</title>
<path fill="none" stroke="black" d="M297.28,-122.11C297.28,-122.11 297.28,-140.99 297.28,-140.99"/>
<polygon fill="black" stroke="black" points="293.78,-140.99 297.28,-150.99 300.78,-140.99 293.78,-140.99"/>
</g>
<!-- SymbolService  -->
<g id="node3" class="node">
<title>SymbolService </title>
<polygon fill="#fb8072" stroke="black" points="308.54,-252 203.46,-252 203.46,-216 308.54,-216 308.54,-252"/>
<text text-anchor="middle" x="256" y="-229.8" font-family="Times,serif" font-size="14.00">SymbolService </text>
</g>
<!-- SymbolModule&#45;&gt;SymbolService  -->
<g id="edge2" class="edge">
<title>SymbolModule&#45;&gt;SymbolService </title>
<path fill="none" stroke="black" stroke-dasharray="5,2" d="M256,-187.11C256,-187.11 256,-205.99 256,-205.99"/>
<polygon fill="black" stroke="black" points="252.5,-205.99 256,-215.99 259.5,-205.99 252.5,-205.99"/>
</g>
<!-- SymbolService -->
<g id="node4" class="node">
<title>SymbolService</title>
<ellipse fill="#fdb462" stroke="black" cx="193" cy="-104" rx="70.08" ry="18"/>
<text text-anchor="middle" x="193" y="-99.8" font-family="Times,serif" font-size="14.00">SymbolService</text>
</g>
<!-- SymbolService&#45;&gt;SymbolModule -->
<g id="edge3" class="edge">
<title>SymbolService&#45;&gt;SymbolModule</title>
<path fill="none" stroke="black" d="M233.74,-118.75C233.74,-118.75 233.74,-140.59 233.74,-140.59"/>
<polygon fill="black" stroke="black" points="230.24,-140.59 233.74,-150.59 237.24,-140.59 230.24,-140.59"/>
</g>
</g>
</svg>
