<?xml version="1.0" encoding="UTF-8" standalone="no"?>
<!DOCTYPE svg PUBLIC "-//W3C//DTD SVG 1.1//EN"
 "http://www.w3.org/Graphics/SVG/1.1/DTD/svg11.dtd">
<!-- Generated by graphviz version 2.47.0 (20210316.0004)
 -->
<!-- Title: dependencies Pages: 1 -->
<svg width="504pt" height="284pt"
 viewBox="0.00 0.00 504.00 284.00" xmlns="http://www.w3.org/2000/svg" xmlns:xlink="http://www.w3.org/1999/xlink">
<g id="graph0" class="graph" transform="scale(1 1) rotate(0) translate(4 280)">
<title>dependencies</title>
<polygon fill="white" stroke="transparent" points="-4,4 -4,-280 500,-280 500,4 -4,4"/>
<text text-anchor="start" x="227.01" y="-42.4" font-family="Times-12" font-weight="bold" font-size="14.00">Legend</text>
<polygon fill="#ffffb3" stroke="transparent" points="14,-10 14,-30 34,-30 34,-10 14,-10"/>
<text text-anchor="start" x="37.63" y="-15.4" font-family="Times-12" font-size="14.00"> &#160;Declarations</text>
<polygon fill="#8dd3c7" stroke="transparent" points="127,-10 127,-30 147,-30 147,-10 127,-10"/>
<text text-anchor="start" x="150.73" y="-15.4" font-family="Times-12" font-size="14.00"> &#160;Module</text>
<polygon fill="#80b1d3" stroke="transparent" points="213,-10 213,-30 233,-30 233,-10 213,-10"/>
<text text-anchor="start" x="236.78" y="-15.4" font-family="Times-12" font-size="14.00"> &#160;Bootstrap</text>
<polygon fill="#fdb462" stroke="transparent" points="310,-10 310,-30 330,-30 330,-10 310,-10"/>
<text text-anchor="start" x="333.67" y="-15.4" font-family="Times-12" font-size="14.00"> &#160;Providers</text>
<polygon fill="#fb8072" stroke="transparent" points="406,-10 406,-30 426,-30 426,-10 406,-10"/>
<text text-anchor="start" x="429.73" y="-15.4" font-family="Times-12" font-size="14.00"> &#160;Exports</text>
<g id="clust1" class="cluster">
<title>cluster_NoteModule</title>
<polygon fill="none" stroke="black" stroke-dasharray="1,5" points="118,-70 118,-268 378,-268 378,-70 118,-70"/>
</g>
<g id="clust6" class="cluster">
<title>cluster_NoteModule_providers</title>
<polygon fill="none" stroke="black" points="236,-78 236,-130 370,-130 370,-78 236,-78"/>
</g>
<g id="clust4" class="cluster">
<title>cluster_NoteModule_exports</title>
<polygon fill="none" stroke="black" points="188,-208 188,-260 292,-260 292,-208 188,-208"/>
</g>
<g id="clust3" class="cluster">
<title>cluster_NoteModule_imports</title>
<polygon fill="none" stroke="black" points="126,-78 126,-130 228,-130 228,-78 126,-78"/>
</g>
<!-- RoleModule -->
<g id="node1" class="node">
<title>RoleModule</title>
<polygon fill="#8dd3c7" stroke="black" points="219.99,-122 216.99,-126 195.99,-126 192.99,-122 134.01,-122 134.01,-86 219.99,-86 219.99,-122"/>
<text text-anchor="middle" x="177" y="-99.8" font-family="Times,serif" font-size="14.00">RoleModule</text>
</g>
<!-- NoteModule -->
<g id="node2" class="node">
<title>NoteModule</title>
<polygon fill="#8dd3c7" stroke="black" points="283.26,-187 280.26,-191 259.26,-191 256.26,-187 196.74,-187 196.74,-151 283.26,-151 283.26,-187"/>
<text text-anchor="middle" x="240" y="-164.8" font-family="Times,serif" font-size="14.00">NoteModule</text>
</g>
<!-- RoleModule&#45;&gt;NoteModule -->
<g id="edge1" class="edge">
<title>RoleModule&#45;&gt;NoteModule</title>
<path fill="none" stroke="black" d="M208.31,-122.11C208.31,-122.11 208.31,-140.99 208.31,-140.99"/>
<polygon fill="black" stroke="black" points="204.81,-140.99 208.31,-150.99 211.81,-140.99 204.81,-140.99"/>
</g>
<!-- NoteService  -->
<g id="node3" class="node">
<title>NoteService </title>
<polygon fill="#fb8072" stroke="black" points="284.19,-252 195.81,-252 195.81,-216 284.19,-216 284.19,-252"/>
<text text-anchor="middle" x="240" y="-229.8" font-family="Times,serif" font-size="14.00">NoteService </text>
</g>
<!-- NoteModule&#45;&gt;NoteService  -->
<g id="edge2" class="edge">
<title>NoteModule&#45;&gt;NoteService </title>
<path fill="none" stroke="black" stroke-dasharray="5,2" d="M240,-187.11C240,-187.11 240,-205.99 240,-205.99"/>
<polygon fill="black" stroke="black" points="236.5,-205.99 240,-215.99 243.5,-205.99 236.5,-205.99"/>
</g>
<!-- NoteService -->
<g id="node4" class="node">
<title>NoteService</title>
<ellipse fill="#fdb462" stroke="black" cx="303" cy="-104" rx="58.53" ry="18"/>
<text text-anchor="middle" x="303" y="-99.8" font-family="Times,serif" font-size="14.00">NoteService</text>
</g>
<!-- NoteService&#45;&gt;NoteModule -->
<g id="edge3" class="edge">
<title>NoteService&#45;&gt;NoteModule</title>
<path fill="none" stroke="black" d="M263.81,-117.47C263.81,-117.47 263.81,-140.86 263.81,-140.86"/>
<polygon fill="black" stroke="black" points="260.31,-140.86 263.81,-150.86 267.31,-140.86 260.31,-140.86"/>
</g>
</g>
</svg>
