<?xml version="1.0" encoding="UTF-8" standalone="no"?>
<!DOCTYPE svg PUBLIC "-//W3C//DTD SVG 1.1//EN"
 "http://www.w3.org/Graphics/SVG/1.1/DTD/svg11.dtd">
<!-- Generated by graphviz version 2.47.0 (20210316.0004)
 -->
<!-- Title: dependencies Pages: 1 -->
<svg width="3575pt" height="211pt"
 viewBox="0.00 0.00 3575.00 211.00" xmlns="http://www.w3.org/2000/svg" xmlns:xlink="http://www.w3.org/1999/xlink">
<g id="graph0" class="graph" transform="scale(1 1) rotate(0) translate(4 207)">
<title>dependencies</title>
<polygon fill="white" stroke="transparent" points="-4,4 -4,-207 3571,-207 3571,4 -4,4"/>
<text text-anchor="start" x="1762.51" y="-42.4" font-family="Times-12" font-weight="bold" font-size="14.00">Legend</text>
<polygon fill="#ffffb3" stroke="transparent" points="1549.5,-10 1549.5,-30 1569.5,-30 1569.5,-10 1549.5,-10"/>
<text text-anchor="start" x="1573.13" y="-15.4" font-family="Times-12" font-size="14.00"> &#160;Declarations</text>
<polygon fill="#8dd3c7" stroke="transparent" points="1662.5,-10 1662.5,-30 1682.5,-30 1682.5,-10 1662.5,-10"/>
<text text-anchor="start" x="1686.23" y="-15.4" font-family="Times-12" font-size="14.00"> &#160;Module</text>
<polygon fill="#80b1d3" stroke="transparent" points="1748.5,-10 1748.5,-30 1768.5,-30 1768.5,-10 1748.5,-10"/>
<text text-anchor="start" x="1772.28" y="-15.4" font-family="Times-12" font-size="14.00"> &#160;Bootstrap</text>
<polygon fill="#fdb462" stroke="transparent" points="1845.5,-10 1845.5,-30 1865.5,-30 1865.5,-10 1845.5,-10"/>
<text text-anchor="start" x="1869.17" y="-15.4" font-family="Times-12" font-size="14.00"> &#160;Providers</text>
<polygon fill="#fb8072" stroke="transparent" points="1941.5,-10 1941.5,-30 1961.5,-30 1961.5,-10 1941.5,-10"/>
<text text-anchor="start" x="1965.23" y="-15.4" font-family="Times-12" font-size="14.00"> &#160;Exports</text>
<g id="clust1" class="cluster">
<title>cluster_AppModule</title>
<polygon fill="none" stroke="black" stroke-dasharray="1,5" points="8,-70 8,-195 3559,-195 3559,-70 8,-70"/>
</g>
<g id="clust3" class="cluster">
<title>cluster_AppModule_imports</title>
<polygon fill="none" stroke="black" points="546,-78 546,-130 3551,-130 3551,-78 546,-78"/>
</g>
<g id="clust6" class="cluster">
<title>cluster_AppModule_providers</title>
<polygon fill="none" stroke="black" points="16,-78 16,-130 538,-130 538,-78 16,-78"/>
</g>
<!-- AssemblyModule -->
<g id="node1" class="node">
<title>AssemblyModule</title>
<polygon fill="#8dd3c7" stroke="black" points="3542.54,-122 3539.54,-126 3518.54,-126 3515.54,-122 3427.46,-122 3427.46,-86 3542.54,-86 3542.54,-122"/>
<text text-anchor="middle" x="3485" y="-99.8" font-family="Times,serif" font-size="14.00">AssemblyModule</text>
</g>
<!-- AppModule -->
<g id="node24" class="node">
<title>AppModule</title>
<polygon fill="#8dd3c7" stroke="black" points="1739.66,-187 1736.66,-191 1715.66,-191 1712.66,-187 1656.34,-187 1656.34,-151 1739.66,-151 1739.66,-187"/>
<text text-anchor="middle" x="1698" y="-164.8" font-family="Times,serif" font-size="14.00">AppModule</text>
</g>
<!-- AssemblyModule&#45;&gt;AppModule -->
<g id="edge1" class="edge">
<title>AssemblyModule&#45;&gt;AppModule</title>
<path fill="none" stroke="black" d="M3485,-122.38C3485,-146.28 3485,-185 3485,-185 3485,-185 1749.98,-185 1749.98,-185"/>
<polygon fill="black" stroke="black" points="1749.98,-181.5 1739.98,-185 1749.98,-188.5 1749.98,-181.5"/>
</g>
<!-- AuthModule -->
<g id="node2" class="node">
<title>AuthModule</title>
<polygon fill="#8dd3c7" stroke="black" points="3408.55,-122 3405.55,-126 3384.55,-126 3381.55,-122 3321.45,-122 3321.45,-86 3408.55,-86 3408.55,-122"/>
<text text-anchor="middle" x="3365" y="-99.8" font-family="Times,serif" font-size="14.00">AuthModule</text>
</g>
<!-- AuthModule&#45;&gt;AppModule -->
<g id="edge2" class="edge">
<title>AuthModule&#45;&gt;AppModule</title>
<path fill="none" stroke="black" d="M3365,-122.09C3365,-145.13 3365,-182 3365,-182 3365,-182 1750.04,-182 1750.04,-182"/>
<polygon fill="black" stroke="black" points="1750.04,-178.5 1740.04,-182 1750.04,-185.5 1750.04,-178.5"/>
</g>
<!-- ExternalResourceModule -->
<g id="node3" class="node">
<title>ExternalResourceModule</title>
<polygon fill="#8dd3c7" stroke="black" points="3303.56,-122 3300.56,-126 3279.56,-126 3276.56,-122 3144.44,-122 3144.44,-86 3303.56,-86 3303.56,-122"/>
<text text-anchor="middle" x="3224" y="-99.8" font-family="Times,serif" font-size="14.00">ExternalResourceModule</text>
</g>
<!-- ExternalResourceModule&#45;&gt;AppModule -->
<g id="edge3" class="edge">
<title>ExternalResourceModule&#45;&gt;AppModule</title>
<path fill="none" stroke="black" d="M3224,-122.16C3224,-144.35 3224,-179 3224,-179 3224,-179 1750.01,-179 1750.01,-179"/>
<polygon fill="black" stroke="black" points="1750.01,-175.5 1740.01,-179 1750.01,-182.5 1750.01,-175.5"/>
</g>
<!-- GeneHistoryModule -->
<g id="node4" class="node">
<title>GeneHistoryModule</title>
<polygon fill="#8dd3c7" stroke="black" points="3126.58,-122 3123.58,-126 3102.58,-126 3099.58,-122 2995.42,-122 2995.42,-86 3126.58,-86 3126.58,-122"/>
<text text-anchor="middle" x="3061" y="-99.8" font-family="Times,serif" font-size="14.00">GeneHistoryModule</text>
</g>
<!-- GeneHistoryModule&#45;&gt;AppModule -->
<g id="edge4" class="edge">
<title>GeneHistoryModule&#45;&gt;AppModule</title>
<path fill="none" stroke="black" d="M3061,-122.17C3061,-143.5 3061,-176 3061,-176 3061,-176 1749.91,-176 1749.91,-176"/>
<polygon fill="black" stroke="black" points="1749.91,-172.5 1739.91,-176 1749.91,-179.5 1749.91,-172.5"/>
</g>
<!-- GeneLocusTypeModule -->
<g id="node5" class="node">
<title>GeneLocusTypeModule</title>
<polygon fill="#8dd3c7" stroke="black" points="2977.06,-122 2974.06,-126 2953.06,-126 2950.06,-122 2824.94,-122 2824.94,-86 2977.06,-86 2977.06,-122"/>
<text text-anchor="middle" x="2901" y="-99.8" font-family="Times,serif" font-size="14.00">GeneLocusTypeModule</text>
</g>
<!-- GeneLocusTypeModule&#45;&gt;AppModule -->
<g id="edge5" class="edge">
<title>GeneLocusTypeModule&#45;&gt;AppModule</title>
<path fill="none" stroke="black" d="M2901,-122.03C2901,-142.77 2901,-174 2901,-174 2901,-174 1749.76,-174 1749.76,-174"/>
<polygon fill="black" stroke="black" points="1749.76,-170.5 1739.76,-174 1749.76,-177.5 1749.76,-170.5"/>
</g>
<!-- GeneModule -->
<g id="node6" class="node">
<title>GeneModule</title>
<polygon fill="#8dd3c7" stroke="black" points="2806.59,-122 2803.59,-126 2782.59,-126 2779.59,-122 2717.41,-122 2717.41,-86 2806.59,-86 2806.59,-122"/>
<text text-anchor="middle" x="2762" y="-99.8" font-family="Times,serif" font-size="14.00">GeneModule</text>
</g>
<!-- GeneModule&#45;&gt;AppModule -->
<g id="edge6" class="edge">
<title>GeneModule&#45;&gt;AppModule</title>
<path fill="none" stroke="black" d="M2762,-122.31C2762,-142.15 2762,-171 2762,-171 2762,-171 1749.71,-171 1749.71,-171"/>
<polygon fill="black" stroke="black" points="1749.71,-167.5 1739.71,-171 1749.71,-174.5 1749.71,-167.5"/>
</g>
<!-- GeneNameModule -->
<g id="node7" class="node">
<title>GeneNameModule</title>
<polygon fill="#8dd3c7" stroke="black" points="2699.01,-122 2696.01,-126 2675.01,-126 2672.01,-122 2576.99,-122 2576.99,-86 2699.01,-86 2699.01,-122"/>
<text text-anchor="middle" x="2638" y="-99.8" font-family="Times,serif" font-size="14.00">GeneNameModule</text>
</g>
<!-- GeneNameModule&#45;&gt;AppModule -->
<g id="edge7" class="edge">
<title>GeneNameModule&#45;&gt;AppModule</title>
<path fill="none" stroke="black" d="M2638,-122.17C2638,-141.09 2638,-168 2638,-168 2638,-168 1749.91,-168 1749.91,-168"/>
<polygon fill="black" stroke="black" points="1749.91,-164.5 1739.91,-168 1749.91,-171.5 1749.91,-164.5"/>
</g>
<!-- GeneNoteModule -->
<g id="node8" class="node">
<title>GeneNoteModule</title>
<polygon fill="#8dd3c7" stroke="black" points="2559.3,-122 2556.3,-126 2535.3,-126 2532.3,-122 2442.7,-122 2442.7,-86 2559.3,-86 2559.3,-122"/>
<text text-anchor="middle" x="2501" y="-99.8" font-family="Times,serif" font-size="14.00">GeneNoteModule</text>
</g>
<!-- GeneNoteModule&#45;&gt;AppModule -->
<g id="edge8" class="edge">
<title>GeneNoteModule&#45;&gt;AppModule</title>
<path fill="none" stroke="black" d="M2501,-122.3C2501,-140.27 2501,-165 2501,-165 2501,-165 1749.76,-165 1749.76,-165"/>
<polygon fill="black" stroke="black" points="1749.76,-161.5 1739.76,-165 1749.76,-168.5 1749.76,-161.5"/>
</g>
<!-- GeneReplacementModule -->
<g id="node9" class="node">
<title>GeneReplacementModule</title>
<polygon fill="#8dd3c7" stroke="black" points="2425.17,-122 2422.17,-126 2401.17,-126 2398.17,-122 2262.83,-122 2262.83,-86 2425.17,-86 2425.17,-122"/>
<text text-anchor="middle" x="2344" y="-99.8" font-family="Times,serif" font-size="14.00">GeneReplacementModule</text>
</g>
<!-- GeneReplacementModule&#45;&gt;AppModule -->
<g id="edge9" class="edge">
<title>GeneReplacementModule&#45;&gt;AppModule</title>
<path fill="none" stroke="black" d="M2344,-122.02C2344,-139.37 2344,-163 2344,-163 2344,-163 1749.89,-163 1749.89,-163"/>
<polygon fill="black" stroke="black" points="1749.89,-159.5 1739.89,-163 1749.89,-166.5 1749.89,-159.5"/>
</g>
<!-- GeneSymbolModule -->
<g id="node10" class="node">
<title>GeneSymbolModule</title>
<polygon fill="#8dd3c7" stroke="black" points="2245.15,-122 2242.15,-126 2221.15,-126 2218.15,-122 2112.85,-122 2112.85,-86 2245.15,-86 2245.15,-122"/>
<text text-anchor="middle" x="2179" y="-99.8" font-family="Times,serif" font-size="14.00">GeneSymbolModule</text>
</g>
<!-- GeneSymbolModule&#45;&gt;AppModule -->
<g id="edge10" class="edge">
<title>GeneSymbolModule&#45;&gt;AppModule</title>
<path fill="none" stroke="black" d="M2179,-122.03C2179,-138.4 2179,-160 2179,-160 2179,-160 1749.84,-160 1749.84,-160"/>
<polygon fill="black" stroke="black" points="1749.84,-156.5 1739.84,-160 1749.84,-163.5 1749.84,-156.5"/>
</g>
<!-- GeneXrefModule -->
<g id="node11" class="node">
<title>GeneXrefModule</title>
<polygon fill="#8dd3c7" stroke="black" points="2094.23,-122 2091.23,-126 2070.23,-126 2067.23,-122 1979.77,-122 1979.77,-86 2094.23,-86 2094.23,-122"/>
<text text-anchor="middle" x="2037" y="-99.8" font-family="Times,serif" font-size="14.00">GeneXrefModule</text>
</g>
<!-- GeneXrefModule&#45;&gt;AppModule -->
<g id="edge11" class="edge">
<title>GeneXrefModule&#45;&gt;AppModule</title>
<path fill="none" stroke="black" d="M2037,-122.24C2037,-137.57 2037,-157 2037,-157 2037,-157 1749.91,-157 1749.91,-157"/>
<polygon fill="black" stroke="black" points="1749.91,-153.5 1739.91,-157 1749.91,-160.5 1749.91,-153.5"/>
</g>
<!-- LocationModule -->
<g id="node12" class="node">
<title>LocationModule</title>
<polygon fill="#8dd3c7" stroke="black" points="1961.81,-122 1958.81,-126 1937.81,-126 1934.81,-122 1852.19,-122 1852.19,-86 1961.81,-86 1961.81,-122"/>
<text text-anchor="middle" x="1907" y="-99.8" font-family="Times,serif" font-size="14.00">LocationModule</text>
</g>
<!-- LocationModule&#45;&gt;AppModule -->
<g id="edge12" class="edge">
<title>LocationModule&#45;&gt;AppModule</title>
<path fill="none" stroke="black" d="M1907,-122.05C1907,-136.37 1907,-154 1907,-154 1907,-154 1749.79,-154 1749.79,-154"/>
<polygon fill="black" stroke="black" points="1749.79,-150.5 1739.79,-154 1749.79,-157.5 1749.79,-150.5"/>
</g>
<!-- LocusGroupModule -->
<g id="node13" class="node">
<title>LocusGroupModule</title>
<polygon fill="#8dd3c7" stroke="black" points="1834.53,-122 1831.53,-126 1810.53,-126 1807.53,-122 1705.47,-122 1705.47,-86 1834.53,-86 1834.53,-122"/>
<text text-anchor="middle" x="1770" y="-99.8" font-family="Times,serif" font-size="14.00">LocusGroupModule</text>
</g>
<!-- LocusGroupModule&#45;&gt;AppModule -->
<g id="edge13" class="edge">
<title>LocusGroupModule&#45;&gt;AppModule</title>
<path fill="none" stroke="black" d="M1722.53,-122.11C1722.53,-122.11 1722.53,-140.99 1722.53,-140.99"/>
<polygon fill="black" stroke="black" points="1719.03,-140.99 1722.53,-150.99 1726.03,-140.99 1719.03,-140.99"/>
</g>
<!-- LocusTypeModule -->
<g id="node14" class="node">
<title>LocusTypeModule</title>
<polygon fill="#8dd3c7" stroke="black" points="1687.03,-122 1684.03,-126 1663.03,-126 1660.03,-122 1564.97,-122 1564.97,-86 1687.03,-86 1687.03,-122"/>
<text text-anchor="middle" x="1626" y="-99.8" font-family="Times,serif" font-size="14.00">LocusTypeModule</text>
</g>
<!-- LocusTypeModule&#45;&gt;AppModule -->
<g id="edge14" class="edge">
<title>LocusTypeModule&#45;&gt;AppModule</title>
<path fill="none" stroke="black" d="M1671.72,-122.11C1671.72,-122.11 1671.72,-140.99 1671.72,-140.99"/>
<polygon fill="black" stroke="black" points="1668.22,-140.99 1671.72,-150.99 1675.22,-140.99 1668.22,-140.99"/>
</g>
<!-- MailModule -->
<g id="node15" class="node">
<title>MailModule</title>
<polygon fill="#8dd3c7" stroke="black" points="1546.99,-122 1543.99,-126 1522.99,-126 1519.99,-122 1461.01,-122 1461.01,-86 1546.99,-86 1546.99,-122"/>
<text text-anchor="middle" x="1504" y="-99.8" font-family="Times,serif" font-size="14.00">MailModule</text>
</g>
<!-- MailModule&#45;&gt;AppModule -->
<g id="edge15" class="edge">
<title>MailModule&#45;&gt;AppModule</title>
<path fill="none" stroke="black" d="M1504,-122.05C1504,-136.37 1504,-154 1504,-154 1504,-154 1645.9,-154 1645.9,-154"/>
<polygon fill="black" stroke="black" points="1645.9,-157.5 1655.9,-154 1645.9,-150.5 1645.9,-157.5"/>
</g>
<!-- NameModule -->
<g id="node16" class="node">
<title>NameModule</title>
<polygon fill="#8dd3c7" stroke="black" points="1443.48,-122 1440.48,-126 1419.48,-126 1416.48,-122 1350.52,-122 1350.52,-86 1443.48,-86 1443.48,-122"/>
<text text-anchor="middle" x="1397" y="-99.8" font-family="Times,serif" font-size="14.00">NameModule</text>
</g>
<!-- NameModule&#45;&gt;AppModule -->
<g id="edge16" class="edge">
<title>NameModule&#45;&gt;AppModule</title>
<path fill="none" stroke="black" d="M1397,-122.24C1397,-137.57 1397,-157 1397,-157 1397,-157 1646.15,-157 1646.15,-157"/>
<polygon fill="black" stroke="black" points="1646.15,-160.5 1656.15,-157 1646.15,-153.5 1646.15,-160.5"/>
</g>
<!-- NoteModule -->
<g id="node17" class="node">
<title>NoteModule</title>
<polygon fill="#8dd3c7" stroke="black" points="1332.26,-122 1329.26,-126 1308.26,-126 1305.26,-122 1245.74,-122 1245.74,-86 1332.26,-86 1332.26,-122"/>
<text text-anchor="middle" x="1289" y="-99.8" font-family="Times,serif" font-size="14.00">NoteModule</text>
</g>
<!-- NoteModule&#45;&gt;AppModule -->
<g id="edge17" class="edge">
<title>NoteModule&#45;&gt;AppModule</title>
<path fill="none" stroke="black" d="M1289,-122.03C1289,-138.4 1289,-160 1289,-160 1289,-160 1646.15,-160 1646.15,-160"/>
<polygon fill="black" stroke="black" points="1646.15,-163.5 1656.15,-160 1646.15,-156.5 1646.15,-163.5"/>
</g>
<!-- PaginationModule -->
<g id="node18" class="node">
<title>PaginationModule</title>
<polygon fill="#8dd3c7" stroke="black" points="1227.93,-122 1224.93,-126 1203.93,-126 1200.93,-122 1108.07,-122 1108.07,-86 1227.93,-86 1227.93,-122"/>
<text text-anchor="middle" x="1168" y="-99.8" font-family="Times,serif" font-size="14.00">PaginationModule</text>
</g>
<!-- PaginationModule&#45;&gt;AppModule -->
<g id="edge18" class="edge">
<title>PaginationModule&#45;&gt;AppModule</title>
<path fill="none" stroke="black" d="M1168,-122.02C1168,-139.37 1168,-163 1168,-163 1168,-163 1645.97,-163 1645.97,-163"/>
<polygon fill="black" stroke="black" points="1645.97,-166.5 1655.97,-163 1645.97,-159.5 1645.97,-166.5"/>
</g>
<!-- RoleModule -->
<g id="node19" class="node">
<title>RoleModule</title>
<polygon fill="#8dd3c7" stroke="black" points="1089.99,-122 1086.99,-126 1065.99,-126 1062.99,-122 1004.01,-122 1004.01,-86 1089.99,-86 1089.99,-122"/>
<text text-anchor="middle" x="1047" y="-99.8" font-family="Times,serif" font-size="14.00">RoleModule</text>
</g>
<!-- RoleModule&#45;&gt;AppModule -->
<g id="edge19" class="edge">
<title>RoleModule&#45;&gt;AppModule</title>
<path fill="none" stroke="black" d="M1047,-122.3C1047,-140.27 1047,-165 1047,-165 1047,-165 1646.29,-165 1646.29,-165"/>
<polygon fill="black" stroke="black" points="1646.29,-168.5 1656.29,-165 1646.29,-161.5 1646.29,-168.5"/>
</g>
<!-- SpeciesModule -->
<g id="node20" class="node">
<title>SpeciesModule</title>
<polygon fill="#8dd3c7" stroke="black" points="986.31,-122 983.31,-126 962.31,-126 959.31,-122 883.69,-122 883.69,-86 986.31,-86 986.31,-122"/>
<text text-anchor="middle" x="935" y="-99.8" font-family="Times,serif" font-size="14.00">SpeciesModule</text>
</g>
<!-- SpeciesModule&#45;&gt;AppModule -->
<g id="edge20" class="edge">
<title>SpeciesModule&#45;&gt;AppModule</title>
<path fill="none" stroke="black" d="M935,-122.17C935,-141.09 935,-168 935,-168 935,-168 1646.16,-168 1646.16,-168"/>
<polygon fill="black" stroke="black" points="1646.16,-171.5 1656.16,-168 1646.16,-164.5 1646.16,-171.5"/>
</g>
<!-- SymbolModule -->
<g id="node21" class="node">
<title>SymbolModule</title>
<polygon fill="#8dd3c7" stroke="black" points="865.61,-122 862.61,-126 841.61,-126 838.61,-122 762.39,-122 762.39,-86 865.61,-86 865.61,-122"/>
<text text-anchor="middle" x="814" y="-99.8" font-family="Times,serif" font-size="14.00">SymbolModule</text>
</g>
<!-- SymbolModule&#45;&gt;AppModule -->
<g id="edge21" class="edge">
<title>SymbolModule&#45;&gt;AppModule</title>
<path fill="none" stroke="black" d="M814,-122.31C814,-142.15 814,-171 814,-171 814,-171 1646.25,-171 1646.25,-171"/>
<polygon fill="black" stroke="black" points="1646.25,-174.5 1656.25,-171 1646.25,-167.5 1646.25,-174.5"/>
</g>
<!-- UserModule -->
<g id="node22" class="node">
<title>UserModule</title>
<polygon fill="#8dd3c7" stroke="black" points="743.98,-122 740.98,-126 719.98,-126 716.98,-122 658.02,-122 658.02,-86 743.98,-86 743.98,-122"/>
<text text-anchor="middle" x="701" y="-99.8" font-family="Times,serif" font-size="14.00">UserModule</text>
</g>
<!-- UserModule&#45;&gt;AppModule -->
<g id="edge22" class="edge">
<title>UserModule&#45;&gt;AppModule</title>
<path fill="none" stroke="black" d="M701,-122.03C701,-142.77 701,-174 701,-174 701,-174 1646.11,-174 1646.11,-174"/>
<polygon fill="black" stroke="black" points="1646.11,-177.5 1656.11,-174 1646.11,-170.5 1646.11,-177.5"/>
</g>
<!-- XrefModule -->
<g id="node23" class="node">
<title>XrefModule</title>
<polygon fill="#8dd3c7" stroke="black" points="639.69,-122 636.69,-126 615.69,-126 612.69,-122 554.31,-122 554.31,-86 639.69,-86 639.69,-122"/>
<text text-anchor="middle" x="597" y="-99.8" font-family="Times,serif" font-size="14.00">XrefModule</text>
</g>
<!-- XrefModule&#45;&gt;AppModule -->
<g id="edge23" class="edge">
<title>XrefModule&#45;&gt;AppModule</title>
<path fill="none" stroke="black" d="M597,-122.17C597,-143.5 597,-176 597,-176 597,-176 1646.18,-176 1646.18,-176"/>
<polygon fill="black" stroke="black" points="1646.18,-179.5 1656.18,-176 1646.18,-172.5 1646.18,-179.5"/>
</g>
<!-- AdminRoleGuard -->
<g id="node25" class="node">
<title>AdminRoleGuard</title>
<ellipse fill="#fdb462" stroke="black" cx="450" cy="-104" rx="80.46" ry="18"/>
<text text-anchor="middle" x="450" y="-99.8" font-family="Times,serif" font-size="14.00">AdminRoleGuard</text>
</g>
<!-- AdminRoleGuard&#45;&gt;AppModule -->
<g id="edge24" class="edge">
<title>AdminRoleGuard&#45;&gt;AppModule</title>
<path fill="none" stroke="black" d="M450,-122.16C450,-144.35 450,-179 450,-179 450,-179 1646.12,-179 1646.12,-179"/>
<polygon fill="black" stroke="black" points="1646.12,-182.5 1656.12,-179 1646.12,-175.5 1646.12,-182.5"/>
</g>
<!-- CuratorRoleGuard -->
<g id="node26" class="node">
<title>CuratorRoleGuard</title>
<ellipse fill="#fdb462" stroke="black" cx="269" cy="-104" rx="82.81" ry="18"/>
<text text-anchor="middle" x="269" y="-99.8" font-family="Times,serif" font-size="14.00">CuratorRoleGuard</text>
</g>
<!-- CuratorRoleGuard&#45;&gt;AppModule -->
<g id="edge25" class="edge">
<title>CuratorRoleGuard&#45;&gt;AppModule</title>
<path fill="none" stroke="black" d="M269,-122.09C269,-145.13 269,-182 269,-182 269,-182 1646.01,-182 1646.01,-182"/>
<polygon fill="black" stroke="black" points="1646.01,-185.5 1656.01,-182 1646.01,-178.5 1646.01,-185.5"/>
</g>
<!-- UserRoleGuard -->
<g id="node27" class="node">
<title>UserRoleGuard</title>
<ellipse fill="#fdb462" stroke="black" cx="96" cy="-104" rx="71.77" ry="18"/>
<text text-anchor="middle" x="96" y="-99.8" font-family="Times,serif" font-size="14.00">UserRoleGuard</text>
</g>
<!-- UserRoleGuard&#45;&gt;AppModule -->
<g id="edge26" class="edge">
<title>UserRoleGuard&#45;&gt;AppModule</title>
<path fill="none" stroke="black" d="M96,-122.38C96,-146.28 96,-185 96,-185 96,-185 1645.97,-185 1645.97,-185"/>
<polygon fill="black" stroke="black" points="1645.97,-188.5 1655.97,-185 1645.97,-181.5 1645.97,-188.5"/>
</g>
</g>
</svg>
