<?xml version="1.0" encoding="UTF-8" standalone="no"?>
<!DOCTYPE svg PUBLIC "-//W3C//DTD SVG 1.1//EN"
 "http://www.w3.org/Graphics/SVG/1.1/DTD/svg11.dtd">
<!-- Generated by graphviz version 2.47.0 (20210316.0004)
 -->
<!-- Title: dependencies Pages: 1 -->
<svg width="504pt" height="284pt"
 viewBox="0.00 0.00 504.00 284.00" xmlns="http://www.w3.org/2000/svg" xmlns:xlink="http://www.w3.org/1999/xlink">
<g id="graph0" class="graph" transform="scale(1 1) rotate(0) translate(4 280)">
<title>dependencies</title>
<polygon fill="white" stroke="transparent" points="-4,4 -4,-280 500,-280 500,4 -4,4"/>
<text text-anchor="start" x="227.01" y="-42.4" font-family="Times-12" font-weight="bold" font-size="14.00">Legend</text>
<polygon fill="#ffffb3" stroke="transparent" points="14,-10 14,-30 34,-30 34,-10 14,-10"/>
<text text-anchor="start" x="37.63" y="-15.4" font-family="Times-12" font-size="14.00"> &#160;Declarations</text>
<polygon fill="#8dd3c7" stroke="transparent" points="127,-10 127,-30 147,-30 147,-10 127,-10"/>
<text text-anchor="start" x="150.73" y="-15.4" font-family="Times-12" font-size="14.00"> &#160;Module</text>
<polygon fill="#80b1d3" stroke="transparent" points="213,-10 213,-30 233,-30 233,-10 213,-10"/>
<text text-anchor="start" x="236.78" y="-15.4" font-family="Times-12" font-size="14.00"> &#160;Bootstrap</text>
<polygon fill="#fdb462" stroke="transparent" points="310,-10 310,-30 330,-30 330,-10 310,-10"/>
<text text-anchor="start" x="333.67" y="-15.4" font-family="Times-12" font-size="14.00"> &#160;Providers</text>
<polygon fill="#fb8072" stroke="transparent" points="406,-10 406,-30 426,-30 426,-10 406,-10"/>
<text text-anchor="start" x="429.73" y="-15.4" font-family="Times-12" font-size="14.00"> &#160;Exports</text>
<g id="clust1" class="cluster">
<title>cluster_LocusTypeModule</title>
<polygon fill="none" stroke="black" stroke-dasharray="1,5" points="72,-70 72,-268 424,-268 424,-70 72,-70"/>
</g>
<g id="clust3" class="cluster">
<title>cluster_LocusTypeModule_imports</title>
<polygon fill="none" stroke="black" points="270,-78 270,-130 416,-130 416,-78 270,-78"/>
</g>
<g id="clust4" class="cluster">
<title>cluster_LocusTypeModule_exports</title>
<polygon fill="none" stroke="black" points="187,-208 187,-260 327,-260 327,-208 187,-208"/>
</g>
<g id="clust6" class="cluster">
<title>cluster_LocusTypeModule_providers</title>
<polygon fill="none" stroke="black" points="80,-78 80,-130 262,-130 262,-78 80,-78"/>
</g>
<!-- LocusGroupModule -->
<g id="node1" class="node">
<title>LocusGroupModule</title>
<polygon fill="#8dd3c7" stroke="black" points="407.53,-122 404.53,-126 383.53,-126 380.53,-122 278.47,-122 278.47,-86 407.53,-86 407.53,-122"/>
<text text-anchor="middle" x="343" y="-99.8" font-family="Times,serif" font-size="14.00">LocusGroupModule</text>
</g>
<!-- LocusTypeModule -->
<g id="node2" class="node">
<title>LocusTypeModule</title>
<polygon fill="#8dd3c7" stroke="black" points="318.03,-187 315.03,-191 294.03,-191 291.03,-187 195.97,-187 195.97,-151 318.03,-151 318.03,-187"/>
<text text-anchor="middle" x="257" y="-164.8" font-family="Times,serif" font-size="14.00">LocusTypeModule</text>
</g>
<!-- LocusGroupModule&#45;&gt;LocusTypeModule -->
<g id="edge1" class="edge">
<title>LocusGroupModule&#45;&gt;LocusTypeModule</title>
<path fill="none" stroke="black" d="M298.25,-122.11C298.25,-122.11 298.25,-140.99 298.25,-140.99"/>
<polygon fill="black" stroke="black" points="294.75,-140.99 298.25,-150.99 301.75,-140.99 294.75,-140.99"/>
</g>
<!-- LocusTypeService  -->
<g id="node3" class="node">
<title>LocusTypeService </title>
<polygon fill="#fb8072" stroke="black" points="319.46,-252 194.54,-252 194.54,-216 319.46,-216 319.46,-252"/>
<text text-anchor="middle" x="257" y="-229.8" font-family="Times,serif" font-size="14.00">LocusTypeService </text>
</g>
<!-- LocusTypeModule&#45;&gt;LocusTypeService  -->
<g id="edge2" class="edge">
<title>LocusTypeModule&#45;&gt;LocusTypeService </title>
<path fill="none" stroke="black" stroke-dasharray="5,2" d="M257,-187.11C257,-187.11 257,-205.99 257,-205.99"/>
<polygon fill="black" stroke="black" points="253.5,-205.99 257,-215.99 260.5,-205.99 253.5,-205.99"/>
</g>
<!-- LocusTypeService -->
<g id="node4" class="node">
<title>LocusTypeService</title>
<ellipse fill="#fdb462" stroke="black" cx="171" cy="-104" rx="83.37" ry="18"/>
<text text-anchor="middle" x="171" y="-99.8" font-family="Times,serif" font-size="14.00">LocusTypeService</text>
</g>
<!-- LocusTypeService&#45;&gt;LocusTypeModule -->
<g id="edge3" class="edge">
<title>LocusTypeService&#45;&gt;LocusTypeModule</title>
<path fill="none" stroke="black" d="M225.08,-117.78C225.08,-117.78 225.08,-140.55 225.08,-140.55"/>
<polygon fill="black" stroke="black" points="221.58,-140.55 225.08,-150.55 228.58,-140.55 221.58,-140.55"/>
</g>
</g>
</svg>
