<?xml version="1.0" encoding="UTF-8" standalone="no"?>
<!DOCTYPE svg PUBLIC "-//W3C//DTD SVG 1.1//EN"
 "http://www.w3.org/Graphics/SVG/1.1/DTD/svg11.dtd">
<!-- Generated by graphviz version 2.47.0 (20210316.0004)
 -->
<!-- Title: dependencies Pages: 1 -->
<svg width="504pt" height="284pt"
 viewBox="0.00 0.00 504.00 284.00" xmlns="http://www.w3.org/2000/svg" xmlns:xlink="http://www.w3.org/1999/xlink">
<g id="graph0" class="graph" transform="scale(1 1) rotate(0) translate(4 280)">
<title>dependencies</title>
<polygon fill="white" stroke="transparent" points="-4,4 -4,-280 500,-280 500,4 -4,4"/>
<text text-anchor="start" x="227.01" y="-42.4" font-family="Times-12" font-weight="bold" font-size="14.00">Legend</text>
<polygon fill="#ffffb3" stroke="transparent" points="14,-10 14,-30 34,-30 34,-10 14,-10"/>
<text text-anchor="start" x="37.63" y="-15.4" font-family="Times-12" font-size="14.00"> &#160;Declarations</text>
<polygon fill="#8dd3c7" stroke="transparent" points="127,-10 127,-30 147,-30 147,-10 127,-10"/>
<text text-anchor="start" x="150.73" y="-15.4" font-family="Times-12" font-size="14.00"> &#160;Module</text>
<polygon fill="#80b1d3" stroke="transparent" points="213,-10 213,-30 233,-30 233,-10 213,-10"/>
<text text-anchor="start" x="236.78" y="-15.4" font-family="Times-12" font-size="14.00"> &#160;Bootstrap</text>
<polygon fill="#fdb462" stroke="transparent" points="310,-10 310,-30 330,-30 330,-10 310,-10"/>
<text text-anchor="start" x="333.67" y="-15.4" font-family="Times-12" font-size="14.00"> &#160;Providers</text>
<polygon fill="#fb8072" stroke="transparent" points="406,-10 406,-30 426,-30 426,-10 406,-10"/>
<text text-anchor="start" x="429.73" y="-15.4" font-family="Times-12" font-size="14.00"> &#160;Exports</text>
<g id="clust1" class="cluster">
<title>cluster_NameModule</title>
<polygon fill="none" stroke="black" stroke-dasharray="1,5" points="114,-70 114,-268 382,-268 382,-70 114,-70"/>
</g>
<g id="clust3" class="cluster">
<title>cluster_NameModule_imports</title>
<polygon fill="none" stroke="black" points="272,-78 272,-130 374,-130 374,-78 272,-78"/>
</g>
<g id="clust4" class="cluster">
<title>cluster_NameModule_exports</title>
<polygon fill="none" stroke="black" points="201,-208 201,-260 311,-260 311,-208 201,-208"/>
</g>
<g id="clust6" class="cluster">
<title>cluster_NameModule_providers</title>
<polygon fill="none" stroke="black" points="122,-78 122,-130 264,-130 264,-78 122,-78"/>
</g>
<!-- RoleModule -->
<g id="node1" class="node">
<title>RoleModule</title>
<polygon fill="#8dd3c7" stroke="black" points="365.99,-122 362.99,-126 341.99,-126 338.99,-122 280.01,-122 280.01,-86 365.99,-86 365.99,-122"/>
<text text-anchor="middle" x="323" y="-99.8" font-family="Times,serif" font-size="14.00">RoleModule</text>
</g>
<!-- NameModule -->
<g id="node2" class="node">
<title>NameModule</title>
<polygon fill="#8dd3c7" stroke="black" points="302.48,-187 299.48,-191 278.48,-191 275.48,-187 209.52,-187 209.52,-151 302.48,-151 302.48,-187"/>
<text text-anchor="middle" x="256" y="-164.8" font-family="Times,serif" font-size="14.00">NameModule</text>
</g>
<!-- RoleModule&#45;&gt;NameModule -->
<g id="edge1" class="edge">
<title>RoleModule&#45;&gt;NameModule</title>
<path fill="none" stroke="black" d="M291.25,-122.11C291.25,-122.11 291.25,-140.99 291.25,-140.99"/>
<polygon fill="black" stroke="black" points="287.75,-140.99 291.25,-150.99 294.75,-140.99 287.75,-140.99"/>
</g>
<!-- NameService  -->
<g id="node3" class="node">
<title>NameService </title>
<polygon fill="#fb8072" stroke="black" points="303.4,-252 208.6,-252 208.6,-216 303.4,-216 303.4,-252"/>
<text text-anchor="middle" x="256" y="-229.8" font-family="Times,serif" font-size="14.00">NameService </text>
</g>
<!-- NameModule&#45;&gt;NameService  -->
<g id="edge2" class="edge">
<title>NameModule&#45;&gt;NameService </title>
<path fill="none" stroke="black" stroke-dasharray="5,2" d="M256,-187.11C256,-187.11 256,-205.99 256,-205.99"/>
<polygon fill="black" stroke="black" points="252.5,-205.99 256,-215.99 259.5,-205.99 252.5,-205.99"/>
</g>
<!-- NameService -->
<g id="node4" class="node">
<title>NameService</title>
<ellipse fill="#fdb462" stroke="black" cx="193" cy="-104" rx="63.1" ry="18"/>
<text text-anchor="middle" x="193" y="-99.8" font-family="Times,serif" font-size="14.00">NameService</text>
</g>
<!-- NameService&#45;&gt;NameModule -->
<g id="edge3" class="edge">
<title>NameService&#45;&gt;NameModule</title>
<path fill="none" stroke="black" d="M232.78,-118.1C232.78,-118.1 232.78,-140.72 232.78,-140.72"/>
<polygon fill="black" stroke="black" points="229.28,-140.72 232.78,-150.72 236.28,-140.72 229.28,-140.72"/>
</g>
</g>
</svg>
