<?xml version="1.0" encoding="UTF-8" standalone="no"?>
<!DOCTYPE svg PUBLIC "-//W3C//DTD SVG 1.1//EN"
 "http://www.w3.org/Graphics/SVG/1.1/DTD/svg11.dtd">
<!-- Generated by graphviz version 2.47.0 (20210316.0004)
 -->
<!-- Title: dependencies Pages: 1 -->
<svg width="846pt" height="284pt"
 viewBox="0.00 0.00 846.00 284.00" xmlns="http://www.w3.org/2000/svg" xmlns:xlink="http://www.w3.org/1999/xlink">
<g id="graph0" class="graph" transform="scale(1 1) rotate(0) translate(4 280)">
<title>dependencies</title>
<polygon fill="white" stroke="transparent" points="-4,4 -4,-280 842,-280 842,4 -4,4"/>
<text text-anchor="start" x="398.01" y="-42.4" font-family="Times-12" font-weight="bold" font-size="14.00">Legend</text>
<polygon fill="#ffffb3" stroke="transparent" points="185,-10 185,-30 205,-30 205,-10 185,-10"/>
<text text-anchor="start" x="208.63" y="-15.4" font-family="Times-12" font-size="14.00"> &#160;Declarations</text>
<polygon fill="#8dd3c7" stroke="transparent" points="298,-10 298,-30 318,-30 318,-10 298,-10"/>
<text text-anchor="start" x="321.73" y="-15.4" font-family="Times-12" font-size="14.00"> &#160;Module</text>
<polygon fill="#80b1d3" stroke="transparent" points="384,-10 384,-30 404,-30 404,-10 384,-10"/>
<text text-anchor="start" x="407.78" y="-15.4" font-family="Times-12" font-size="14.00"> &#160;Bootstrap</text>
<polygon fill="#fdb462" stroke="transparent" points="481,-10 481,-30 501,-30 501,-10 481,-10"/>
<text text-anchor="start" x="504.67" y="-15.4" font-family="Times-12" font-size="14.00"> &#160;Providers</text>
<polygon fill="#fb8072" stroke="transparent" points="577,-10 577,-30 597,-30 597,-10 577,-10"/>
<text text-anchor="start" x="600.73" y="-15.4" font-family="Times-12" font-size="14.00"> &#160;Exports</text>
<g id="clust1" class="cluster">
<title>cluster_GeneModule</title>
<polygon fill="none" stroke="black" stroke-dasharray="1,5" points="8,-70 8,-268 830,-268 830,-70 8,-70"/>
</g>
<g id="clust4" class="cluster">
<title>cluster_GeneModule_exports</title>
<polygon fill="none" stroke="black" points="411,-208 411,-260 519,-260 519,-208 411,-208"/>
</g>
<g id="clust3" class="cluster">
<title>cluster_GeneModule_imports</title>
<polygon fill="none" stroke="black" points="358,-78 358,-130 822,-130 822,-78 358,-78"/>
</g>
<g id="clust6" class="cluster">
<title>cluster_GeneModule_providers</title>
<polygon fill="none" stroke="black" points="16,-78 16,-130 350,-130 350,-78 16,-78"/>
</g>
<!-- PaginationModule -->
<g id="node1" class="node">
<title>PaginationModule</title>
<polygon fill="#8dd3c7" stroke="black" points="813.93,-122 810.93,-126 789.93,-126 786.93,-122 694.07,-122 694.07,-86 813.93,-86 813.93,-122"/>
<text text-anchor="middle" x="754" y="-99.8" font-family="Times,serif" font-size="14.00">PaginationModule</text>
</g>
<!-- GeneModule -->
<g id="node5" class="node">
<title>GeneModule</title>
<polygon fill="#8dd3c7" stroke="black" points="509.59,-187 506.59,-191 485.59,-191 482.59,-187 420.41,-187 420.41,-151 509.59,-151 509.59,-187"/>
<text text-anchor="middle" x="465" y="-164.8" font-family="Times,serif" font-size="14.00">GeneModule</text>
</g>
<!-- PaginationModule&#45;&gt;GeneModule -->
<g id="edge1" class="edge">
<title>PaginationModule&#45;&gt;GeneModule</title>
<path fill="none" stroke="black" d="M754,-122.28C754,-143.32 754,-175 754,-175 754,-175 519.84,-175 519.84,-175"/>
<polygon fill="black" stroke="black" points="519.84,-171.5 509.84,-175 519.84,-178.5 519.84,-171.5"/>
</g>
<!-- RoleModule -->
<g id="node2" class="node">
<title>RoleModule</title>
<polygon fill="#8dd3c7" stroke="black" points="675.99,-122 672.99,-126 651.99,-126 648.99,-122 590.01,-122 590.01,-86 675.99,-86 675.99,-122"/>
<text text-anchor="middle" x="633" y="-99.8" font-family="Times,serif" font-size="14.00">RoleModule</text>
</g>
<!-- RoleModule&#45;&gt;GeneModule -->
<g id="edge2" class="edge">
<title>RoleModule&#45;&gt;GeneModule</title>
<path fill="none" stroke="black" d="M633,-122.02C633,-139.37 633,-163 633,-163 633,-163 519.58,-163 519.58,-163"/>
<polygon fill="black" stroke="black" points="519.58,-159.5 509.58,-163 519.58,-166.5 519.58,-159.5"/>
</g>
<!-- SpeciesModule -->
<g id="node3" class="node">
<title>SpeciesModule</title>
<polygon fill="#8dd3c7" stroke="black" points="572.31,-122 569.31,-126 548.31,-126 545.31,-122 469.69,-122 469.69,-86 572.31,-86 572.31,-122"/>
<text text-anchor="middle" x="521" y="-99.8" font-family="Times,serif" font-size="14.00">SpeciesModule</text>
</g>
<!-- SpeciesModule&#45;&gt;GeneModule -->
<g id="edge3" class="edge">
<title>SpeciesModule&#45;&gt;GeneModule</title>
<path fill="none" stroke="black" d="M489.69,-122.11C489.69,-122.11 489.69,-140.99 489.69,-140.99"/>
<polygon fill="black" stroke="black" points="486.19,-140.99 489.69,-150.99 493.19,-140.99 486.19,-140.99"/>
</g>
<!-- UserModule -->
<g id="node4" class="node">
<title>UserModule</title>
<polygon fill="#8dd3c7" stroke="black" points="451.98,-122 448.98,-126 427.98,-126 424.98,-122 366.02,-122 366.02,-86 451.98,-86 451.98,-122"/>
<text text-anchor="middle" x="409" y="-99.8" font-family="Times,serif" font-size="14.00">UserModule</text>
</g>
<!-- UserModule&#45;&gt;GeneModule -->
<g id="edge4" class="edge">
<title>UserModule&#45;&gt;GeneModule</title>
<path fill="none" stroke="black" d="M436.22,-122.11C436.22,-122.11 436.22,-140.99 436.22,-140.99"/>
<polygon fill="black" stroke="black" points="432.72,-140.99 436.22,-150.99 439.72,-140.99 432.72,-140.99"/>
</g>
<!-- GeneService  -->
<g id="node6" class="node">
<title>GeneService </title>
<polygon fill="#fb8072" stroke="black" points="510.51,-252 419.49,-252 419.49,-216 510.51,-216 510.51,-252"/>
<text text-anchor="middle" x="465" y="-229.8" font-family="Times,serif" font-size="14.00">GeneService </text>
</g>
<!-- GeneModule&#45;&gt;GeneService  -->
<g id="edge5" class="edge">
<title>GeneModule&#45;&gt;GeneService </title>
<path fill="none" stroke="black" stroke-dasharray="5,2" d="M465,-187.11C465,-187.11 465,-205.99 465,-205.99"/>
<polygon fill="black" stroke="black" points="461.5,-205.99 465,-215.99 468.5,-205.99 461.5,-205.99"/>
</g>
<!-- CreateGeneProvider -->
<g id="node7" class="node">
<title>CreateGeneProvider</title>
<ellipse fill="#fdb462" stroke="black" cx="252" cy="-104" rx="89.72" ry="18"/>
<text text-anchor="middle" x="252" y="-99.8" font-family="Times,serif" font-size="14.00">CreateGeneProvider</text>
</g>
<!-- CreateGeneProvider&#45;&gt;GeneModule -->
<g id="edge6" class="edge">
<title>CreateGeneProvider&#45;&gt;GeneModule</title>
<path fill="none" stroke="black" d="M252,-122.02C252,-139.37 252,-163 252,-163 252,-163 410.35,-163 410.35,-163"/>
<polygon fill="black" stroke="black" points="410.35,-166.5 420.35,-163 410.35,-159.5 410.35,-166.5"/>
</g>
<!-- GeneService -->
<g id="node8" class="node">
<title>GeneService</title>
<ellipse fill="#fdb462" stroke="black" cx="84" cy="-104" rx="60.23" ry="18"/>
<text text-anchor="middle" x="84" y="-99.8" font-family="Times,serif" font-size="14.00">GeneService</text>
</g>
<!-- GeneService&#45;&gt;GeneModule -->
<g id="edge7" class="edge">
<title>GeneService&#45;&gt;GeneModule</title>
<path fill="none" stroke="black" d="M84,-122.28C84,-143.32 84,-175 84,-175 84,-175 410.17,-175 410.17,-175"/>
<polygon fill="black" stroke="black" points="410.17,-178.5 420.17,-175 410.17,-171.5 410.17,-178.5"/>
</g>
</g>
</svg>
