<?xml version="1.0" encoding="UTF-8" standalone="no"?>
<!DOCTYPE svg PUBLIC "-//W3C//DTD SVG 1.1//EN"
 "http://www.w3.org/Graphics/SVG/1.1/DTD/svg11.dtd">
<!-- Generated by graphviz version 2.47.0 (20210316.0004)
 -->
<!-- Title: dependencies Pages: 1 -->
<svg width="638pt" height="211pt"
 viewBox="0.00 0.00 638.00 211.00" xmlns="http://www.w3.org/2000/svg" xmlns:xlink="http://www.w3.org/1999/xlink">
<g id="graph0" class="graph" transform="scale(1 1) rotate(0) translate(4 207)">
<title>dependencies</title>
<polygon fill="white" stroke="transparent" points="-4,4 -4,-207 634,-207 634,4 -4,4"/>
<text text-anchor="start" x="294.01" y="-42.4" font-family="Times-12" font-weight="bold" font-size="14.00">Legend</text>
<polygon fill="#ffffb3" stroke="transparent" points="81,-10 81,-30 101,-30 101,-10 81,-10"/>
<text text-anchor="start" x="104.63" y="-15.4" font-family="Times-12" font-size="14.00"> &#160;Declarations</text>
<polygon fill="#8dd3c7" stroke="transparent" points="194,-10 194,-30 214,-30 214,-10 194,-10"/>
<text text-anchor="start" x="217.73" y="-15.4" font-family="Times-12" font-size="14.00"> &#160;Module</text>
<polygon fill="#80b1d3" stroke="transparent" points="280,-10 280,-30 300,-30 300,-10 280,-10"/>
<text text-anchor="start" x="303.78" y="-15.4" font-family="Times-12" font-size="14.00"> &#160;Bootstrap</text>
<polygon fill="#fdb462" stroke="transparent" points="377,-10 377,-30 397,-30 397,-10 377,-10"/>
<text text-anchor="start" x="400.67" y="-15.4" font-family="Times-12" font-size="14.00"> &#160;Providers</text>
<polygon fill="#fb8072" stroke="transparent" points="473,-10 473,-30 493,-30 493,-10 473,-10"/>
<text text-anchor="start" x="496.73" y="-15.4" font-family="Times-12" font-size="14.00"> &#160;Exports</text>
<g id="clust1" class="cluster">
<title>cluster_GeneXrefModule</title>
<polygon fill="none" stroke="black" stroke-dasharray="1,5" points="8,-70 8,-195 622,-195 622,-70 8,-70"/>
</g>
<g id="clust3" class="cluster">
<title>cluster_GeneXrefModule_imports</title>
<polygon fill="none" stroke="black" points="196,-78 196,-130 614,-130 614,-78 196,-78"/>
</g>
<g id="clust6" class="cluster">
<title>cluster_GeneXrefModule_providers</title>
<polygon fill="none" stroke="black" points="16,-78 16,-130 188,-130 188,-78 16,-78"/>
</g>
<!-- GeneModule -->
<g id="node1" class="node">
<title>GeneModule</title>
<polygon fill="#8dd3c7" stroke="black" points="605.59,-122 602.59,-126 581.59,-126 578.59,-122 516.41,-122 516.41,-86 605.59,-86 605.59,-122"/>
<text text-anchor="middle" x="561" y="-99.8" font-family="Times,serif" font-size="14.00">GeneModule</text>
</g>
<!-- GeneXrefModule -->
<g id="node5" class="node">
<title>GeneXrefModule</title>
<polygon fill="#8dd3c7" stroke="black" points="408.23,-187 405.23,-191 384.23,-191 381.23,-187 293.77,-187 293.77,-151 408.23,-151 408.23,-187"/>
<text text-anchor="middle" x="351" y="-164.8" font-family="Times,serif" font-size="14.00">GeneXrefModule</text>
</g>
<!-- GeneModule&#45;&gt;GeneXrefModule -->
<g id="edge1" class="edge">
<title>GeneModule&#45;&gt;GeneXrefModule</title>
<path fill="none" stroke="black" d="M561,-122.11C561,-141.34 561,-169 561,-169 561,-169 418.38,-169 418.38,-169"/>
<polygon fill="black" stroke="black" points="418.38,-165.5 408.38,-169 418.38,-172.5 418.38,-165.5"/>
</g>
<!-- RoleModule -->
<g id="node2" class="node">
<title>RoleModule</title>
<polygon fill="#8dd3c7" stroke="black" points="497.99,-122 494.99,-126 473.99,-126 470.99,-122 412.01,-122 412.01,-86 497.99,-86 497.99,-122"/>
<text text-anchor="middle" x="455" y="-99.8" font-family="Times,serif" font-size="14.00">RoleModule</text>
</g>
<!-- RoleModule&#45;&gt;GeneXrefModule -->
<g id="edge2" class="edge">
<title>RoleModule&#45;&gt;GeneXrefModule</title>
<path fill="none" stroke="black" d="M411.81,-104C405.55,-104 401.18,-104 401.18,-104 401.18,-104 401.18,-140.89 401.18,-140.89"/>
<polygon fill="black" stroke="black" points="397.68,-140.89 401.18,-150.89 404.68,-140.89 397.68,-140.89"/>
</g>
<!-- UserModule -->
<g id="node3" class="node">
<title>UserModule</title>
<polygon fill="#8dd3c7" stroke="black" points="393.98,-122 390.98,-126 369.98,-126 366.98,-122 308.02,-122 308.02,-86 393.98,-86 393.98,-122"/>
<text text-anchor="middle" x="351" y="-99.8" font-family="Times,serif" font-size="14.00">UserModule</text>
</g>
<!-- UserModule&#45;&gt;GeneXrefModule -->
<g id="edge3" class="edge">
<title>UserModule&#45;&gt;GeneXrefModule</title>
<path fill="none" stroke="black" d="M351,-122.11C351,-122.11 351,-140.99 351,-140.99"/>
<polygon fill="black" stroke="black" points="347.5,-140.99 351,-150.99 354.5,-140.99 347.5,-140.99"/>
</g>
<!-- XrefModule -->
<g id="node4" class="node">
<title>XrefModule</title>
<polygon fill="#8dd3c7" stroke="black" points="289.69,-122 286.69,-126 265.69,-126 262.69,-122 204.31,-122 204.31,-86 289.69,-86 289.69,-122"/>
<text text-anchor="middle" x="247" y="-99.8" font-family="Times,serif" font-size="14.00">XrefModule</text>
</g>
<!-- XrefModule&#45;&gt;GeneXrefModule -->
<g id="edge4" class="edge">
<title>XrefModule&#45;&gt;GeneXrefModule</title>
<path fill="none" stroke="black" d="M289.67,-104C296.2,-104 300.82,-104 300.82,-104 300.82,-104 300.82,-140.89 300.82,-140.89"/>
<polygon fill="black" stroke="black" points="297.32,-140.89 300.82,-150.89 304.32,-140.89 297.32,-140.89"/>
</g>
<!-- GeneXrefService -->
<g id="node6" class="node">
<title>GeneXrefService</title>
<ellipse fill="#fdb462" stroke="black" cx="102" cy="-104" rx="78.11" ry="18"/>
<text text-anchor="middle" x="102" y="-99.8" font-family="Times,serif" font-size="14.00">GeneXrefService</text>
</g>
<!-- GeneXrefService&#45;&gt;GeneXrefModule -->
<g id="edge5" class="edge">
<title>GeneXrefService&#45;&gt;GeneXrefModule</title>
<path fill="none" stroke="black" d="M102,-122.11C102,-141.34 102,-169 102,-169 102,-169 283.56,-169 283.56,-169"/>
<polygon fill="black" stroke="black" points="283.56,-172.5 293.56,-169 283.56,-165.5 283.56,-172.5"/>
</g>
</g>
</svg>
