<?xml version="1.0" encoding="UTF-8" standalone="no"?>
<!DOCTYPE svg PUBLIC "-//W3C//DTD SVG 1.1//EN"
 "http://www.w3.org/Graphics/SVG/1.1/DTD/svg11.dtd">
<!-- Generated by graphviz version 2.47.0 (20210316.0004)
 -->
<!-- Title: dependencies Pages: 1 -->
<svg width="654pt" height="211pt"
 viewBox="0.00 0.00 654.00 211.00" xmlns="http://www.w3.org/2000/svg" xmlns:xlink="http://www.w3.org/1999/xlink">
<g id="graph0" class="graph" transform="scale(1 1) rotate(0) translate(4 207)">
<title>dependencies</title>
<polygon fill="white" stroke="transparent" points="-4,4 -4,-207 650,-207 650,4 -4,4"/>
<text text-anchor="start" x="302.01" y="-42.4" font-family="Times-12" font-weight="bold" font-size="14.00">Legend</text>
<polygon fill="#ffffb3" stroke="transparent" points="89,-10 89,-30 109,-30 109,-10 89,-10"/>
<text text-anchor="start" x="112.63" y="-15.4" font-family="Times-12" font-size="14.00"> &#160;Declarations</text>
<polygon fill="#8dd3c7" stroke="transparent" points="202,-10 202,-30 222,-30 222,-10 202,-10"/>
<text text-anchor="start" x="225.73" y="-15.4" font-family="Times-12" font-size="14.00"> &#160;Module</text>
<polygon fill="#80b1d3" stroke="transparent" points="288,-10 288,-30 308,-30 308,-10 288,-10"/>
<text text-anchor="start" x="311.78" y="-15.4" font-family="Times-12" font-size="14.00"> &#160;Bootstrap</text>
<polygon fill="#fdb462" stroke="transparent" points="385,-10 385,-30 405,-30 405,-10 385,-10"/>
<text text-anchor="start" x="408.67" y="-15.4" font-family="Times-12" font-size="14.00"> &#160;Providers</text>
<polygon fill="#fb8072" stroke="transparent" points="481,-10 481,-30 501,-30 501,-10 481,-10"/>
<text text-anchor="start" x="504.73" y="-15.4" font-family="Times-12" font-size="14.00"> &#160;Exports</text>
<g id="clust1" class="cluster">
<title>cluster_GeneNameModule</title>
<polygon fill="none" stroke="black" stroke-dasharray="1,5" points="8,-70 8,-195 638,-195 638,-70 8,-70"/>
</g>
<g id="clust6" class="cluster">
<title>cluster_GeneNameModule_providers</title>
<polygon fill="none" stroke="black" points="448,-78 448,-130 630,-130 630,-78 448,-78"/>
</g>
<g id="clust3" class="cluster">
<title>cluster_GeneNameModule_imports</title>
<polygon fill="none" stroke="black" points="16,-78 16,-130 440,-130 440,-78 16,-78"/>
</g>
<!-- GeneModule -->
<g id="node1" class="node">
<title>GeneModule</title>
<polygon fill="#8dd3c7" stroke="black" points="431.59,-122 428.59,-126 407.59,-126 404.59,-122 342.41,-122 342.41,-86 431.59,-86 431.59,-122"/>
<text text-anchor="middle" x="387" y="-99.8" font-family="Times,serif" font-size="14.00">GeneModule</text>
</g>
<!-- GeneNameModule -->
<g id="node5" class="node">
<title>GeneNameModule</title>
<polygon fill="#8dd3c7" stroke="black" points="339.01,-187 336.01,-191 315.01,-191 312.01,-187 216.99,-187 216.99,-151 339.01,-151 339.01,-187"/>
<text text-anchor="middle" x="278" y="-164.8" font-family="Times,serif" font-size="14.00">GeneNameModule</text>
</g>
<!-- GeneModule&#45;&gt;GeneNameModule -->
<g id="edge1" class="edge">
<title>GeneModule&#45;&gt;GeneNameModule</title>
<path fill="none" stroke="black" d="M342.24,-104C336.11,-104 331.87,-104 331.87,-104 331.87,-104 331.87,-140.89 331.87,-140.89"/>
<polygon fill="black" stroke="black" points="328.37,-140.89 331.87,-150.89 335.37,-140.89 328.37,-140.89"/>
</g>
<!-- NameModule -->
<g id="node2" class="node">
<title>NameModule</title>
<polygon fill="#8dd3c7" stroke="black" points="324.48,-122 321.48,-126 300.48,-126 297.48,-122 231.52,-122 231.52,-86 324.48,-86 324.48,-122"/>
<text text-anchor="middle" x="278" y="-99.8" font-family="Times,serif" font-size="14.00">NameModule</text>
</g>
<!-- NameModule&#45;&gt;GeneNameModule -->
<g id="edge2" class="edge">
<title>NameModule&#45;&gt;GeneNameModule</title>
<path fill="none" stroke="black" d="M278,-122.11C278,-122.11 278,-140.99 278,-140.99"/>
<polygon fill="black" stroke="black" points="274.5,-140.99 278,-150.99 281.5,-140.99 274.5,-140.99"/>
</g>
<!-- RoleModule -->
<g id="node3" class="node">
<title>RoleModule</title>
<polygon fill="#8dd3c7" stroke="black" points="213.99,-122 210.99,-126 189.99,-126 186.99,-122 128.01,-122 128.01,-86 213.99,-86 213.99,-122"/>
<text text-anchor="middle" x="171" y="-99.8" font-family="Times,serif" font-size="14.00">RoleModule</text>
</g>
<!-- RoleModule&#45;&gt;GeneNameModule -->
<g id="edge3" class="edge">
<title>RoleModule&#45;&gt;GeneNameModule</title>
<path fill="none" stroke="black" d="M214.38,-104C220.16,-104 224.13,-104 224.13,-104 224.13,-104 224.13,-140.89 224.13,-140.89"/>
<polygon fill="black" stroke="black" points="220.63,-140.89 224.13,-150.89 227.63,-140.89 220.63,-140.89"/>
</g>
<!-- UserModule -->
<g id="node4" class="node">
<title>UserModule</title>
<polygon fill="#8dd3c7" stroke="black" points="109.98,-122 106.98,-126 85.98,-126 82.98,-122 24.02,-122 24.02,-86 109.98,-86 109.98,-122"/>
<text text-anchor="middle" x="67" y="-99.8" font-family="Times,serif" font-size="14.00">UserModule</text>
</g>
<!-- UserModule&#45;&gt;GeneNameModule -->
<g id="edge4" class="edge">
<title>UserModule&#45;&gt;GeneNameModule</title>
<path fill="none" stroke="black" d="M67,-122.11C67,-141.34 67,-169 67,-169 67,-169 206.97,-169 206.97,-169"/>
<polygon fill="black" stroke="black" points="206.97,-172.5 216.97,-169 206.97,-165.5 206.97,-172.5"/>
</g>
<!-- GeneNameService -->
<g id="node6" class="node">
<title>GeneNameService</title>
<ellipse fill="#fdb462" stroke="black" cx="539" cy="-104" rx="83.34" ry="18"/>
<text text-anchor="middle" x="539" y="-99.8" font-family="Times,serif" font-size="14.00">GeneNameService</text>
</g>
<!-- GeneNameService&#45;&gt;GeneNameModule -->
<g id="edge5" class="edge">
<title>GeneNameService&#45;&gt;GeneNameModule</title>
<path fill="none" stroke="black" d="M539,-122.11C539,-141.34 539,-169 539,-169 539,-169 349.19,-169 349.19,-169"/>
<polygon fill="black" stroke="black" points="349.19,-165.5 339.19,-169 349.19,-172.5 349.19,-165.5"/>
</g>
</g>
</svg>
