<?xml version="1.0" encoding="UTF-8" standalone="no"?>
<!DOCTYPE svg PUBLIC "-//W3C//DTD SVG 1.1//EN"
 "http://www.w3.org/Graphics/SVG/1.1/DTD/svg11.dtd">
<!-- Generated by graphviz version 2.47.0 (20210316.0004)
 -->
<!-- Title: dependencies Pages: 1 -->
<svg width="600pt" height="211pt"
 viewBox="0.00 0.00 600.00 211.00" xmlns="http://www.w3.org/2000/svg" xmlns:xlink="http://www.w3.org/1999/xlink">
<g id="graph0" class="graph" transform="scale(1 1) rotate(0) translate(4 207)">
<title>dependencies</title>
<polygon fill="white" stroke="transparent" points="-4,4 -4,-207 596,-207 596,4 -4,4"/>
<text text-anchor="start" x="275.01" y="-42.4" font-family="Times-12" font-weight="bold" font-size="14.00">Legend</text>
<polygon fill="#ffffb3" stroke="transparent" points="62,-10 62,-30 82,-30 82,-10 62,-10"/>
<text text-anchor="start" x="85.63" y="-15.4" font-family="Times-12" font-size="14.00"> &#160;Declarations</text>
<polygon fill="#8dd3c7" stroke="transparent" points="175,-10 175,-30 195,-30 195,-10 175,-10"/>
<text text-anchor="start" x="198.73" y="-15.4" font-family="Times-12" font-size="14.00"> &#160;Module</text>
<polygon fill="#80b1d3" stroke="transparent" points="261,-10 261,-30 281,-30 281,-10 261,-10"/>
<text text-anchor="start" x="284.78" y="-15.4" font-family="Times-12" font-size="14.00"> &#160;Bootstrap</text>
<polygon fill="#fdb462" stroke="transparent" points="358,-10 358,-30 378,-30 378,-10 358,-10"/>
<text text-anchor="start" x="381.67" y="-15.4" font-family="Times-12" font-size="14.00"> &#160;Providers</text>
<polygon fill="#fb8072" stroke="transparent" points="454,-10 454,-30 474,-30 474,-10 454,-10"/>
<text text-anchor="start" x="477.73" y="-15.4" font-family="Times-12" font-size="14.00"> &#160;Exports</text>
<g id="clust1" class="cluster">
<title>cluster_GeneReplacementModule</title>
<polygon fill="none" stroke="black" stroke-dasharray="1,5" points="8,-70 8,-195 584,-195 584,-70 8,-70"/>
</g>
<g id="clust6" class="cluster">
<title>cluster_GeneReplacementModule_providers</title>
<polygon fill="none" stroke="black" points="338,-78 338,-130 576,-130 576,-78 338,-78"/>
</g>
<g id="clust3" class="cluster">
<title>cluster_GeneReplacementModule_imports</title>
<polygon fill="none" stroke="black" points="16,-78 16,-130 330,-130 330,-78 16,-78"/>
</g>
<!-- GeneModule -->
<g id="node1" class="node">
<title>GeneModule</title>
<polygon fill="#8dd3c7" stroke="black" points="321.59,-122 318.59,-126 297.59,-126 294.59,-122 232.41,-122 232.41,-86 321.59,-86 321.59,-122"/>
<text text-anchor="middle" x="277" y="-99.8" font-family="Times,serif" font-size="14.00">GeneModule</text>
</g>
<!-- GeneReplacementModule -->
<g id="node4" class="node">
<title>GeneReplacementModule</title>
<polygon fill="#8dd3c7" stroke="black" points="305.17,-187 302.17,-191 281.17,-191 278.17,-187 142.83,-187 142.83,-151 305.17,-151 305.17,-187"/>
<text text-anchor="middle" x="224" y="-164.8" font-family="Times,serif" font-size="14.00">GeneReplacementModule</text>
</g>
<!-- GeneModule&#45;&gt;GeneReplacementModule -->
<g id="edge1" class="edge">
<title>GeneModule&#45;&gt;GeneReplacementModule</title>
<path fill="none" stroke="black" d="M268.77,-122.11C268.77,-122.11 268.77,-140.99 268.77,-140.99"/>
<polygon fill="black" stroke="black" points="265.27,-140.99 268.77,-150.99 272.27,-140.99 265.27,-140.99"/>
</g>
<!-- RoleModule -->
<g id="node2" class="node">
<title>RoleModule</title>
<polygon fill="#8dd3c7" stroke="black" points="213.99,-122 210.99,-126 189.99,-126 186.99,-122 128.01,-122 128.01,-86 213.99,-86 213.99,-122"/>
<text text-anchor="middle" x="171" y="-99.8" font-family="Times,serif" font-size="14.00">RoleModule</text>
</g>
<!-- RoleModule&#45;&gt;GeneReplacementModule -->
<g id="edge2" class="edge">
<title>RoleModule&#45;&gt;GeneReplacementModule</title>
<path fill="none" stroke="black" d="M178.46,-122.11C178.46,-122.11 178.46,-140.99 178.46,-140.99"/>
<polygon fill="black" stroke="black" points="174.96,-140.99 178.46,-150.99 181.96,-140.99 174.96,-140.99"/>
</g>
<!-- UserModule -->
<g id="node3" class="node">
<title>UserModule</title>
<polygon fill="#8dd3c7" stroke="black" points="109.98,-122 106.98,-126 85.98,-126 82.98,-122 24.02,-122 24.02,-86 109.98,-86 109.98,-122"/>
<text text-anchor="middle" x="67" y="-99.8" font-family="Times,serif" font-size="14.00">UserModule</text>
</g>
<!-- UserModule&#45;&gt;GeneReplacementModule -->
<g id="edge3" class="edge">
<title>UserModule&#45;&gt;GeneReplacementModule</title>
<path fill="none" stroke="black" d="M67,-122.11C67,-141.34 67,-169 67,-169 67,-169 132.74,-169 132.74,-169"/>
<polygon fill="black" stroke="black" points="132.74,-172.5 142.74,-169 132.74,-165.5 132.74,-172.5"/>
</g>
<!-- GeneReplacementService -->
<g id="node5" class="node">
<title>GeneReplacementService</title>
<ellipse fill="#fdb462" stroke="black" cx="457" cy="-104" rx="110.55" ry="18"/>
<text text-anchor="middle" x="457" y="-99.8" font-family="Times,serif" font-size="14.00">GeneReplacementService</text>
</g>
<!-- GeneReplacementService&#45;&gt;GeneReplacementModule -->
<g id="edge4" class="edge">
<title>GeneReplacementService&#45;&gt;GeneReplacementModule</title>
<path fill="none" stroke="black" d="M457,-122.11C457,-141.34 457,-169 457,-169 457,-169 315.17,-169 315.17,-169"/>
<polygon fill="black" stroke="black" points="315.17,-165.5 305.17,-169 315.16,-172.5 315.17,-165.5"/>
</g>
</g>
</svg>
