<?xml version="1.0" encoding="UTF-8" standalone="no"?>
<!DOCTYPE svg PUBLIC "-//W3C//DTD SVG 1.1//EN"
 "http://www.w3.org/Graphics/SVG/1.1/DTD/svg11.dtd">
<!-- Generated by graphviz version 2.47.0 (20210316.0004)
 -->
<!-- Title: dependencies Pages: 1 -->
<svg width="640pt" height="211pt"
 viewBox="0.00 0.00 640.00 211.00" xmlns="http://www.w3.org/2000/svg" xmlns:xlink="http://www.w3.org/1999/xlink">
<g id="graph0" class="graph" transform="scale(1 1) rotate(0) translate(4 207)">
<title>dependencies</title>
<polygon fill="white" stroke="transparent" points="-4,4 -4,-207 636,-207 636,4 -4,4"/>
<text text-anchor="start" x="295.01" y="-42.4" font-family="Times-12" font-weight="bold" font-size="14.00">Legend</text>
<polygon fill="#ffffb3" stroke="transparent" points="82,-10 82,-30 102,-30 102,-10 82,-10"/>
<text text-anchor="start" x="105.63" y="-15.4" font-family="Times-12" font-size="14.00"> &#160;Declarations</text>
<polygon fill="#8dd3c7" stroke="transparent" points="195,-10 195,-30 215,-30 215,-10 195,-10"/>
<text text-anchor="start" x="218.73" y="-15.4" font-family="Times-12" font-size="14.00"> &#160;Module</text>
<polygon fill="#80b1d3" stroke="transparent" points="281,-10 281,-30 301,-30 301,-10 281,-10"/>
<text text-anchor="start" x="304.78" y="-15.4" font-family="Times-12" font-size="14.00"> &#160;Bootstrap</text>
<polygon fill="#fdb462" stroke="transparent" points="378,-10 378,-30 398,-30 398,-10 378,-10"/>
<text text-anchor="start" x="401.67" y="-15.4" font-family="Times-12" font-size="14.00"> &#160;Providers</text>
<polygon fill="#fb8072" stroke="transparent" points="474,-10 474,-30 494,-30 494,-10 474,-10"/>
<text text-anchor="start" x="497.73" y="-15.4" font-family="Times-12" font-size="14.00"> &#160;Exports</text>
<g id="clust1" class="cluster">
<title>cluster_GeneNoteModule</title>
<polygon fill="none" stroke="black" stroke-dasharray="1,5" points="8,-70 8,-195 624,-195 624,-70 8,-70"/>
</g>
<g id="clust6" class="cluster">
<title>cluster_GeneNoteModule_providers</title>
<polygon fill="none" stroke="black" points="442,-78 442,-130 616,-130 616,-78 442,-78"/>
</g>
<g id="clust3" class="cluster">
<title>cluster_GeneNoteModule_imports</title>
<polygon fill="none" stroke="black" points="16,-78 16,-130 434,-130 434,-78 16,-78"/>
</g>
<!-- GeneModule -->
<g id="node1" class="node">
<title>GeneModule</title>
<polygon fill="#8dd3c7" stroke="black" points="425.59,-122 422.59,-126 401.59,-126 398.59,-122 336.41,-122 336.41,-86 425.59,-86 425.59,-122"/>
<text text-anchor="middle" x="381" y="-99.8" font-family="Times,serif" font-size="14.00">GeneModule</text>
</g>
<!-- GeneNoteModule -->
<g id="node5" class="node">
<title>GeneNoteModule</title>
<polygon fill="#8dd3c7" stroke="black" points="333.3,-187 330.3,-191 309.3,-191 306.3,-187 216.7,-187 216.7,-151 333.3,-151 333.3,-187"/>
<text text-anchor="middle" x="275" y="-164.8" font-family="Times,serif" font-size="14.00">GeneNoteModule</text>
</g>
<!-- GeneModule&#45;&gt;GeneNoteModule -->
<g id="edge1" class="edge">
<title>GeneModule&#45;&gt;GeneNoteModule</title>
<path fill="none" stroke="black" d="M336.41,-104C330.13,-104 325.76,-104 325.76,-104 325.76,-104 325.76,-140.89 325.76,-140.89"/>
<polygon fill="black" stroke="black" points="322.26,-140.89 325.76,-150.89 329.26,-140.89 322.26,-140.89"/>
</g>
<!-- NoteModule -->
<g id="node2" class="node">
<title>NoteModule</title>
<polygon fill="#8dd3c7" stroke="black" points="318.26,-122 315.26,-126 294.26,-126 291.26,-122 231.74,-122 231.74,-86 318.26,-86 318.26,-122"/>
<text text-anchor="middle" x="275" y="-99.8" font-family="Times,serif" font-size="14.00">NoteModule</text>
</g>
<!-- NoteModule&#45;&gt;GeneNoteModule -->
<g id="edge2" class="edge">
<title>NoteModule&#45;&gt;GeneNoteModule</title>
<path fill="none" stroke="black" d="M275,-122.11C275,-122.11 275,-140.99 275,-140.99"/>
<polygon fill="black" stroke="black" points="271.5,-140.99 275,-150.99 278.5,-140.99 271.5,-140.99"/>
</g>
<!-- RoleModule -->
<g id="node3" class="node">
<title>RoleModule</title>
<polygon fill="#8dd3c7" stroke="black" points="213.99,-122 210.99,-126 189.99,-126 186.99,-122 128.01,-122 128.01,-86 213.99,-86 213.99,-122"/>
<text text-anchor="middle" x="171" y="-99.8" font-family="Times,serif" font-size="14.00">RoleModule</text>
</g>
<!-- RoleModule&#45;&gt;GeneNoteModule -->
<g id="edge3" class="edge">
<title>RoleModule&#45;&gt;GeneNoteModule</title>
<path fill="none" stroke="black" d="M214.47,-104C220.25,-104 224.24,-104 224.24,-104 224.24,-104 224.24,-140.89 224.24,-140.89"/>
<polygon fill="black" stroke="black" points="220.74,-140.89 224.24,-150.89 227.74,-140.89 220.74,-140.89"/>
</g>
<!-- UserModule -->
<g id="node4" class="node">
<title>UserModule</title>
<polygon fill="#8dd3c7" stroke="black" points="109.98,-122 106.98,-126 85.98,-126 82.98,-122 24.02,-122 24.02,-86 109.98,-86 109.98,-122"/>
<text text-anchor="middle" x="67" y="-99.8" font-family="Times,serif" font-size="14.00">UserModule</text>
</g>
<!-- UserModule&#45;&gt;GeneNoteModule -->
<g id="edge4" class="edge">
<title>UserModule&#45;&gt;GeneNoteModule</title>
<path fill="none" stroke="black" d="M67,-122.11C67,-141.34 67,-169 67,-169 67,-169 206.78,-169 206.78,-169"/>
<polygon fill="black" stroke="black" points="206.78,-172.5 216.78,-169 206.78,-165.5 206.78,-172.5"/>
</g>
<!-- GeneNoteService -->
<g id="node6" class="node">
<title>GeneNoteService</title>
<ellipse fill="#fdb462" stroke="black" cx="529" cy="-104" rx="79.27" ry="18"/>
<text text-anchor="middle" x="529" y="-99.8" font-family="Times,serif" font-size="14.00">GeneNoteService</text>
</g>
<!-- GeneNoteService&#45;&gt;GeneNoteModule -->
<g id="edge5" class="edge">
<title>GeneNoteService&#45;&gt;GeneNoteModule</title>
<path fill="none" stroke="black" d="M529,-122.11C529,-141.34 529,-169 529,-169 529,-169 343.27,-169 343.27,-169"/>
<polygon fill="black" stroke="black" points="343.27,-165.5 333.27,-169 343.27,-172.5 343.27,-165.5"/>
</g>
</g>
</svg>
