<?xml version="1.0" encoding="UTF-8" standalone="no"?>
<!DOCTYPE svg PUBLIC "-//W3C//DTD SVG 1.1//EN"
 "http://www.w3.org/Graphics/SVG/1.1/DTD/svg11.dtd">
<!-- Generated by graphviz version 2.47.0 (20210316.0004)
 -->
<!-- Title: dependencies Pages: 1 -->
<svg width="504pt" height="284pt"
 viewBox="0.00 0.00 504.00 284.00" xmlns="http://www.w3.org/2000/svg" xmlns:xlink="http://www.w3.org/1999/xlink">
<g id="graph0" class="graph" transform="scale(1 1) rotate(0) translate(4 280)">
<title>dependencies</title>
<polygon fill="white" stroke="transparent" points="-4,4 -4,-280 500,-280 500,4 -4,4"/>
<text text-anchor="start" x="227.01" y="-42.4" font-family="Times-12" font-weight="bold" font-size="14.00">Legend</text>
<polygon fill="#ffffb3" stroke="transparent" points="14,-10 14,-30 34,-30 34,-10 14,-10"/>
<text text-anchor="start" x="37.63" y="-15.4" font-family="Times-12" font-size="14.00"> &#160;Declarations</text>
<polygon fill="#8dd3c7" stroke="transparent" points="127,-10 127,-30 147,-30 147,-10 127,-10"/>
<text text-anchor="start" x="150.73" y="-15.4" font-family="Times-12" font-size="14.00"> &#160;Module</text>
<polygon fill="#80b1d3" stroke="transparent" points="213,-10 213,-30 233,-30 233,-10 213,-10"/>
<text text-anchor="start" x="236.78" y="-15.4" font-family="Times-12" font-size="14.00"> &#160;Bootstrap</text>
<polygon fill="#fdb462" stroke="transparent" points="310,-10 310,-30 330,-30 330,-10 310,-10"/>
<text text-anchor="start" x="333.67" y="-15.4" font-family="Times-12" font-size="14.00"> &#160;Providers</text>
<polygon fill="#fb8072" stroke="transparent" points="406,-10 406,-30 426,-30 426,-10 406,-10"/>
<text text-anchor="start" x="429.73" y="-15.4" font-family="Times-12" font-size="14.00"> &#160;Exports</text>
<g id="clust1" class="cluster">
<title>cluster_XrefModule</title>
<polygon fill="none" stroke="black" stroke-dasharray="1,5" points="82,-70 82,-268 414,-268 414,-70 82,-70"/>
</g>
<g id="clust6" class="cluster">
<title>cluster_XrefModule_providers</title>
<polygon fill="none" stroke="black" points="274,-78 274,-130 406,-130 406,-78 274,-78"/>
</g>
<g id="clust3" class="cluster">
<title>cluster_XrefModule_imports</title>
<polygon fill="none" stroke="black" points="90,-78 90,-130 266,-130 266,-78 90,-78"/>
</g>
<g id="clust4" class="cluster">
<title>cluster_XrefModule_exports</title>
<polygon fill="none" stroke="black" points="207,-208 207,-260 311,-260 311,-208 207,-208"/>
</g>
<!-- ExternalResourceModule -->
<g id="node1" class="node">
<title>ExternalResourceModule</title>
<polygon fill="#8dd3c7" stroke="black" points="257.56,-122 254.56,-126 233.56,-126 230.56,-122 98.44,-122 98.44,-86 257.56,-86 257.56,-122"/>
<text text-anchor="middle" x="178" y="-99.8" font-family="Times,serif" font-size="14.00">ExternalResourceModule</text>
</g>
<!-- XrefModule -->
<g id="node2" class="node">
<title>XrefModule</title>
<polygon fill="#8dd3c7" stroke="black" points="301.69,-187 298.69,-191 277.69,-191 274.69,-187 216.31,-187 216.31,-151 301.69,-151 301.69,-187"/>
<text text-anchor="middle" x="259" y="-164.8" font-family="Times,serif" font-size="14.00">XrefModule</text>
</g>
<!-- ExternalResourceModule&#45;&gt;XrefModule -->
<g id="edge1" class="edge">
<title>ExternalResourceModule&#45;&gt;XrefModule</title>
<path fill="none" stroke="black" d="M236.97,-122.11C236.97,-122.11 236.97,-140.99 236.97,-140.99"/>
<polygon fill="black" stroke="black" points="233.47,-140.99 236.97,-150.99 240.47,-140.99 233.47,-140.99"/>
</g>
<!-- XrefService  -->
<g id="node3" class="node">
<title>XrefService </title>
<polygon fill="#fb8072" stroke="black" points="302.62,-252 215.38,-252 215.38,-216 302.62,-216 302.62,-252"/>
<text text-anchor="middle" x="259" y="-229.8" font-family="Times,serif" font-size="14.00">XrefService </text>
</g>
<!-- XrefModule&#45;&gt;XrefService  -->
<g id="edge2" class="edge">
<title>XrefModule&#45;&gt;XrefService </title>
<path fill="none" stroke="black" stroke-dasharray="5,2" d="M259,-187.11C259,-187.11 259,-205.99 259,-205.99"/>
<polygon fill="black" stroke="black" points="255.5,-205.99 259,-215.99 262.5,-205.99 255.5,-205.99"/>
</g>
<!-- XrefService -->
<g id="node4" class="node">
<title>XrefService</title>
<ellipse fill="#fdb462" stroke="black" cx="340" cy="-104" rx="57.86" ry="18"/>
<text text-anchor="middle" x="340" y="-99.8" font-family="Times,serif" font-size="14.00">XrefService</text>
</g>
<!-- XrefService&#45;&gt;XrefModule -->
<g id="edge3" class="edge">
<title>XrefService&#45;&gt;XrefModule</title>
<path fill="none" stroke="black" d="M291.96,-114.16C291.96,-114.16 291.96,-140.81 291.96,-140.81"/>
<polygon fill="black" stroke="black" points="288.46,-140.81 291.96,-150.81 295.46,-140.81 288.46,-140.81"/>
</g>
</g>
</svg>
