<?xml version="1.0" encoding="UTF-8" standalone="no"?>
<!DOCTYPE svg PUBLIC "-//W3C//DTD SVG 1.1//EN"
 "http://www.w3.org/Graphics/SVG/1.1/DTD/svg11.dtd">
<!-- Generated by graphviz version 2.47.0 (20210316.0004)
 -->
<!-- Title: dependencies Pages: 1 -->
<svg width="680pt" height="211pt"
 viewBox="0.00 0.00 680.00 211.00" xmlns="http://www.w3.org/2000/svg" xmlns:xlink="http://www.w3.org/1999/xlink">
<g id="graph0" class="graph" transform="scale(1 1) rotate(0) translate(4 207)">
<title>dependencies</title>
<polygon fill="white" stroke="transparent" points="-4,4 -4,-207 676,-207 676,4 -4,4"/>
<text text-anchor="start" x="315.01" y="-42.4" font-family="Times-12" font-weight="bold" font-size="14.00">Legend</text>
<polygon fill="#ffffb3" stroke="transparent" points="102,-10 102,-30 122,-30 122,-10 102,-10"/>
<text text-anchor="start" x="125.63" y="-15.4" font-family="Times-12" font-size="14.00"> &#160;Declarations</text>
<polygon fill="#8dd3c7" stroke="transparent" points="215,-10 215,-30 235,-30 235,-10 215,-10"/>
<text text-anchor="start" x="238.73" y="-15.4" font-family="Times-12" font-size="14.00"> &#160;Module</text>
<polygon fill="#80b1d3" stroke="transparent" points="301,-10 301,-30 321,-30 321,-10 301,-10"/>
<text text-anchor="start" x="324.78" y="-15.4" font-family="Times-12" font-size="14.00"> &#160;Bootstrap</text>
<polygon fill="#fdb462" stroke="transparent" points="398,-10 398,-30 418,-30 418,-10 398,-10"/>
<text text-anchor="start" x="421.67" y="-15.4" font-family="Times-12" font-size="14.00"> &#160;Providers</text>
<polygon fill="#fb8072" stroke="transparent" points="494,-10 494,-30 514,-30 514,-10 494,-10"/>
<text text-anchor="start" x="517.73" y="-15.4" font-family="Times-12" font-size="14.00"> &#160;Exports</text>
<g id="clust1" class="cluster">
<title>cluster_GeneSymbolModule</title>
<polygon fill="none" stroke="black" stroke-dasharray="1,5" points="8,-70 8,-195 664,-195 664,-70 8,-70"/>
</g>
<g id="clust6" class="cluster">
<title>cluster_GeneSymbolModule_providers</title>
<polygon fill="none" stroke="black" points="460,-78 460,-130 656,-130 656,-78 460,-78"/>
</g>
<g id="clust3" class="cluster">
<title>cluster_GeneSymbolModule_imports</title>
<polygon fill="none" stroke="black" points="16,-78 16,-130 452,-130 452,-78 16,-78"/>
</g>
<!-- GeneModule -->
<g id="node1" class="node">
<title>GeneModule</title>
<polygon fill="#8dd3c7" stroke="black" points="443.59,-122 440.59,-126 419.59,-126 416.59,-122 354.41,-122 354.41,-86 443.59,-86 443.59,-122"/>
<text text-anchor="middle" x="399" y="-99.8" font-family="Times,serif" font-size="14.00">GeneModule</text>
</g>
<!-- GeneSymbolModule -->
<g id="node5" class="node">
<title>GeneSymbolModule</title>
<polygon fill="#8dd3c7" stroke="black" points="359.15,-187 356.15,-191 335.15,-191 332.15,-187 226.85,-187 226.85,-151 359.15,-151 359.15,-187"/>
<text text-anchor="middle" x="293" y="-164.8" font-family="Times,serif" font-size="14.00">GeneSymbolModule</text>
</g>
<!-- GeneModule&#45;&gt;GeneSymbolModule -->
<g id="edge1" class="edge">
<title>GeneModule&#45;&gt;GeneSymbolModule</title>
<path fill="none" stroke="black" d="M354.11,-104C348.8,-104 345.23,-104 345.23,-104 345.23,-104 345.23,-140.89 345.23,-140.89"/>
<polygon fill="black" stroke="black" points="341.73,-140.89 345.23,-150.89 348.73,-140.89 341.73,-140.89"/>
</g>
<!-- RoleModule -->
<g id="node2" class="node">
<title>RoleModule</title>
<polygon fill="#8dd3c7" stroke="black" points="335.99,-122 332.99,-126 311.99,-126 308.99,-122 250.01,-122 250.01,-86 335.99,-86 335.99,-122"/>
<text text-anchor="middle" x="293" y="-99.8" font-family="Times,serif" font-size="14.00">RoleModule</text>
</g>
<!-- RoleModule&#45;&gt;GeneSymbolModule -->
<g id="edge2" class="edge">
<title>RoleModule&#45;&gt;GeneSymbolModule</title>
<path fill="none" stroke="black" d="M293,-122.11C293,-122.11 293,-140.99 293,-140.99"/>
<polygon fill="black" stroke="black" points="289.5,-140.99 293,-150.99 296.5,-140.99 289.5,-140.99"/>
</g>
<!-- SymbolModule -->
<g id="node3" class="node">
<title>SymbolModule</title>
<polygon fill="#8dd3c7" stroke="black" points="231.61,-122 228.61,-126 207.61,-126 204.61,-122 128.39,-122 128.39,-86 231.61,-86 231.61,-122"/>
<text text-anchor="middle" x="180" y="-99.8" font-family="Times,serif" font-size="14.00">SymbolModule</text>
</g>
<!-- SymbolModule&#45;&gt;GeneSymbolModule -->
<g id="edge3" class="edge">
<title>SymbolModule&#45;&gt;GeneSymbolModule</title>
<path fill="none" stroke="black" d="M231.81,-104C237.22,-104 240.78,-104 240.78,-104 240.78,-104 240.78,-140.89 240.78,-140.89"/>
<polygon fill="black" stroke="black" points="237.28,-140.89 240.78,-150.89 244.28,-140.89 237.28,-140.89"/>
</g>
<!-- UserModule -->
<g id="node4" class="node">
<title>UserModule</title>
<polygon fill="#8dd3c7" stroke="black" points="109.98,-122 106.98,-126 85.98,-126 82.98,-122 24.02,-122 24.02,-86 109.98,-86 109.98,-122"/>
<text text-anchor="middle" x="67" y="-99.8" font-family="Times,serif" font-size="14.00">UserModule</text>
</g>
<!-- UserModule&#45;&gt;GeneSymbolModule -->
<g id="edge4" class="edge">
<title>UserModule&#45;&gt;GeneSymbolModule</title>
<path fill="none" stroke="black" d="M67,-122.11C67,-141.34 67,-169 67,-169 67,-169 216.72,-169 216.72,-169"/>
<polygon fill="black" stroke="black" points="216.72,-172.5 226.72,-169 216.72,-165.5 216.72,-172.5"/>
</g>
<!-- GeneSymbolService -->
<g id="node6" class="node">
<title>GeneSymbolService</title>
<ellipse fill="#fdb462" stroke="black" cx="558" cy="-104" rx="90.33" ry="18"/>
<text text-anchor="middle" x="558" y="-99.8" font-family="Times,serif" font-size="14.00">GeneSymbolService</text>
</g>
<!-- GeneSymbolService&#45;&gt;GeneSymbolModule -->
<g id="edge5" class="edge">
<title>GeneSymbolService&#45;&gt;GeneSymbolModule</title>
<path fill="none" stroke="black" d="M558,-122.11C558,-141.34 558,-169 558,-169 558,-169 369.19,-169 369.19,-169"/>
<polygon fill="black" stroke="black" points="369.19,-165.5 359.19,-169 369.19,-172.5 369.19,-165.5"/>
</g>
</g>
</svg>
