<?xml version="1.0" encoding="UTF-8" standalone="no"?>
<!DOCTYPE svg PUBLIC "-//W3C//DTD SVG 1.1//EN"
 "http://www.w3.org/Graphics/SVG/1.1/DTD/svg11.dtd">
<!-- Generated by graphviz version 2.47.0 (20210316.0004)
 -->
<!-- Title: dependencies Pages: 1 -->
<svg width="726pt" height="211pt"
 viewBox="0.00 0.00 726.00 211.00" xmlns="http://www.w3.org/2000/svg" xmlns:xlink="http://www.w3.org/1999/xlink">
<g id="graph0" class="graph" transform="scale(1 1) rotate(0) translate(4 207)">
<title>dependencies</title>
<polygon fill="white" stroke="transparent" points="-4,4 -4,-207 722,-207 722,4 -4,4"/>
<text text-anchor="start" x="338.01" y="-42.4" font-family="Times-12" font-weight="bold" font-size="14.00">Legend</text>
<polygon fill="#ffffb3" stroke="transparent" points="125,-10 125,-30 145,-30 145,-10 125,-10"/>
<text text-anchor="start" x="148.63" y="-15.4" font-family="Times-12" font-size="14.00"> &#160;Declarations</text>
<polygon fill="#8dd3c7" stroke="transparent" points="238,-10 238,-30 258,-30 258,-10 238,-10"/>
<text text-anchor="start" x="261.73" y="-15.4" font-family="Times-12" font-size="14.00"> &#160;Module</text>
<polygon fill="#80b1d3" stroke="transparent" points="324,-10 324,-30 344,-30 344,-10 324,-10"/>
<text text-anchor="start" x="347.78" y="-15.4" font-family="Times-12" font-size="14.00"> &#160;Bootstrap</text>
<polygon fill="#fdb462" stroke="transparent" points="421,-10 421,-30 441,-30 441,-10 421,-10"/>
<text text-anchor="start" x="444.67" y="-15.4" font-family="Times-12" font-size="14.00"> &#160;Providers</text>
<polygon fill="#fb8072" stroke="transparent" points="517,-10 517,-30 537,-30 537,-10 517,-10"/>
<text text-anchor="start" x="540.73" y="-15.4" font-family="Times-12" font-size="14.00"> &#160;Exports</text>
<g id="clust1" class="cluster">
<title>cluster_GeneLocusTypeModule</title>
<polygon fill="none" stroke="black" stroke-dasharray="1,5" points="8,-70 8,-195 710,-195 710,-70 8,-70"/>
</g>
<g id="clust6" class="cluster">
<title>cluster_GeneLocusTypeModule_providers</title>
<polygon fill="none" stroke="black" points="478,-78 478,-130 702,-130 702,-78 478,-78"/>
</g>
<g id="clust3" class="cluster">
<title>cluster_GeneLocusTypeModule_imports</title>
<polygon fill="none" stroke="black" points="16,-78 16,-130 470,-130 470,-78 16,-78"/>
</g>
<!-- GeneModule -->
<g id="node1" class="node">
<title>GeneModule</title>
<polygon fill="#8dd3c7" stroke="black" points="461.59,-122 458.59,-126 437.59,-126 434.59,-122 372.41,-122 372.41,-86 461.59,-86 461.59,-122"/>
<text text-anchor="middle" x="417" y="-99.8" font-family="Times,serif" font-size="14.00">GeneModule</text>
</g>
<!-- GeneLocusTypeModule -->
<g id="node5" class="node">
<title>GeneLocusTypeModule</title>
<polygon fill="#8dd3c7" stroke="black" points="369.06,-187 366.06,-191 345.06,-191 342.06,-187 216.94,-187 216.94,-151 369.06,-151 369.06,-187"/>
<text text-anchor="middle" x="293" y="-164.8" font-family="Times,serif" font-size="14.00">GeneLocusTypeModule</text>
</g>
<!-- GeneModule&#45;&gt;GeneLocusTypeModule -->
<g id="edge1" class="edge">
<title>GeneModule&#45;&gt;GeneLocusTypeModule</title>
<path fill="none" stroke="black" d="M372.32,-104C366.03,-104 361.65,-104 361.65,-104 361.65,-104 361.65,-140.89 361.65,-140.89"/>
<polygon fill="black" stroke="black" points="358.15,-140.89 361.65,-150.89 365.15,-140.89 358.15,-140.89"/>
</g>
<!-- LocusTypeModule -->
<g id="node2" class="node">
<title>LocusTypeModule</title>
<polygon fill="#8dd3c7" stroke="black" points="354.03,-122 351.03,-126 330.03,-126 327.03,-122 231.97,-122 231.97,-86 354.03,-86 354.03,-122"/>
<text text-anchor="middle" x="293" y="-99.8" font-family="Times,serif" font-size="14.00">LocusTypeModule</text>
</g>
<!-- LocusTypeModule&#45;&gt;GeneLocusTypeModule -->
<g id="edge2" class="edge">
<title>LocusTypeModule&#45;&gt;GeneLocusTypeModule</title>
<path fill="none" stroke="black" d="M293,-122.11C293,-122.11 293,-140.99 293,-140.99"/>
<polygon fill="black" stroke="black" points="289.5,-140.99 293,-150.99 296.5,-140.99 289.5,-140.99"/>
</g>
<!-- RoleModule -->
<g id="node3" class="node">
<title>RoleModule</title>
<polygon fill="#8dd3c7" stroke="black" points="213.99,-122 210.99,-126 189.99,-126 186.99,-122 128.01,-122 128.01,-86 213.99,-86 213.99,-122"/>
<text text-anchor="middle" x="171" y="-99.8" font-family="Times,serif" font-size="14.00">RoleModule</text>
</g>
<!-- RoleModule&#45;&gt;GeneLocusTypeModule -->
<g id="edge3" class="edge">
<title>RoleModule&#45;&gt;GeneLocusTypeModule</title>
<path fill="none" stroke="black" d="M214.06,-104C220.13,-104 224.35,-104 224.35,-104 224.35,-104 224.35,-140.89 224.35,-140.89"/>
<polygon fill="black" stroke="black" points="220.85,-140.89 224.35,-150.89 227.85,-140.89 220.85,-140.89"/>
</g>
<!-- UserModule -->
<g id="node4" class="node">
<title>UserModule</title>
<polygon fill="#8dd3c7" stroke="black" points="109.98,-122 106.98,-126 85.98,-126 82.98,-122 24.02,-122 24.02,-86 109.98,-86 109.98,-122"/>
<text text-anchor="middle" x="67" y="-99.8" font-family="Times,serif" font-size="14.00">UserModule</text>
</g>
<!-- UserModule&#45;&gt;GeneLocusTypeModule -->
<g id="edge4" class="edge">
<title>UserModule&#45;&gt;GeneLocusTypeModule</title>
<path fill="none" stroke="black" d="M67,-122.11C67,-141.34 67,-169 67,-169 67,-169 206.8,-169 206.8,-169"/>
<polygon fill="black" stroke="black" points="206.8,-172.5 216.8,-169 206.8,-165.5 206.8,-172.5"/>
</g>
<!-- GeneLocusTypeService -->
<g id="node6" class="node">
<title>GeneLocusTypeService</title>
<ellipse fill="#fdb462" stroke="black" cx="590" cy="-104" rx="103.61" ry="18"/>
<text text-anchor="middle" x="590" y="-99.8" font-family="Times,serif" font-size="14.00">GeneLocusTypeService</text>
</g>
<!-- GeneLocusTypeService&#45;&gt;GeneLocusTypeModule -->
<g id="edge5" class="edge">
<title>GeneLocusTypeService&#45;&gt;GeneLocusTypeModule</title>
<path fill="none" stroke="black" d="M590,-122.11C590,-141.34 590,-169 590,-169 590,-169 379.1,-169 379.1,-169"/>
<polygon fill="black" stroke="black" points="379.1,-165.5 369.1,-169 379.1,-172.5 379.1,-165.5"/>
</g>
</g>
</svg>
